/* XPM */
static char *result[] = {
/* columns rows colors chars-per-pixel */
"32 32 77 1 ",
"  c #222324",
". c #2D2A27",
"X c #342B24",
"o c #3A2D24",
"O c #342E29",
"+ c #3F3126",
"@ c #3D332A",
"# c #3F3E37",
"$ c #443227",
"% c #45372A",
"& c #483629",
"* c #47382C",
"= c #4C3B2D",
"- c #553D2E",
"; c #513F30",
": c #5A412F",
"> c #4D4437",
", c #404139",
"< c #4E4538",
"1 c #4D483D",
"2 c #534132",
"3 c #5A4332",
"4 c #5D4936",
"5 c #514739",
"6 c #52493D",
"7 c #614633",
"8 c #644936",
"9 c #694B36",
"0 c #654D39",
"q c #6B4E39",
"w c #704F3A",
"e c #6C523B",
"r c #72553D",
"t c #76593E",
"y c #7A5A3F",
"u c #08255D",
"i c #0D295E",
"p c #1D3561",
"a c #3C4642",
"s c #3F4B46",
"d c #3F4E4B",
"f c #1E4765",
"g c #444A42",
"h c #494C44",
"j c #584F40",
"k c #43524E",
"l c #4D534B",
"z c #555146",
"x c #525348",
"c c #5D5B4D",
"v c #4A5650",
"b c #475854",
"n c #4B5A55",
"m c #4B5E5A",
"M c #505D56",
"N c #655643",
"B c #605B4C",
"V c #6F5F49",
"C c #735B44",
"Z c #7C5D41",
"A c #596157",
"S c #54655D",
"D c #58645A",
"F c #7C6045",
"G c #73614B",
"H c #78654D",
"J c #666252",
"K c #6A6654",
"L c #676758",
"P c #746C57",
"I c #576B64",
"U c #5B6C63",
"Y c #626E62",
"T c #805F42",
"R c #826144",
"E c #8A6748",
"W c #8C6949",
/* pixels */
"uuuuuppppuuppupuppppppuuuppppuuu",
"uuuuuuupppu..........ppuuuppppuu",
"puuuuuupp..2eRFRTFZ%3..puuppuuuu",
"iupuuuuu.rte*%%%%%%0re3.uuuuuuuu",
"uppuuuu.yZ%%%%%%%%%*%rr:.uuuuuuu",
"pppppuO0F%%%%%%%%%%%%.r8.uuuuupp",
"pppppfORW%%%*%%%%%%%..Fw.pppppfp",
"ppffffOFW%%%%%*%%%%...yw.ppppppf",
"pppppp 3RW*%%%%%%....Zq:.pffffff",
"ppppp.2.4ZRt*......etq-.+.pppppp",
"ppppp.0..3e=eyZyZZt%7=..$.fffffp",
"ffppp.C2e.XX+*****$XX.$$%.ppffpp",
"fffff.N2R4...........o3&%.fffppf",
"ppppf.DjR=yry0:F0;rq9o:*s.pfpppp",
"ppppp.xYH=ECt=3R0$8w9o;la.ppfffp",
"ppppf.*JUAFZe%tFZ;-q8hkxo.fppppp",
"fffff.=RcDUUJ6HGHz6nnlg8o.pppppp",
"fffpp.2W2ePKUIIIImnzz2X7o.pppppf",
"pppff.=R=eRTG1VGV6<q97o7$.pppppp",
"ppppp.*F2eRyF=TTR3-q99o7o.pppppp",
"ppppp.=R=eRyr*RFT3;wq3o:o.fffffp",
"ffppp.%R2tyyr*ZyZ3;q9-o7o.ffffff",
"fpppp +F2FFyq2FZZ8;q7-$3o.ppppff",
"ppppp #q2tyy*tRyZR*9--o-@.ppfffp",
"ppppp.bB;qZt*ZRZZZ*-3-o5d.ffpppp",
"ffffpuuSJ=tt*tTZyR%--+>vuuffpppp",
"fffpppuuShCZ*ZFRZR%-8,kuuppppppp",
"pppfpppuuUULx0RFRe,xlbuupppppppp",
"ppppppppuuuSUSYYYMkkhuuppppppppf",
"ppppppppppuuuuuuuuuuuupppppppppp",
"ffpppppppppppppppppppppppppppppp",
"fpppppppppppppffffppppppppfffffp"
};
