/* XPM */
static char *result[] = {
/* columns rows colors chars-per-pixel */
"32 32 6 1 ",
"  c #002D5B",
". c #012E5B",
"X c #05305C",
"o c #12375E",
"O c #183A5F",
"+ c #224964",
/* pixels */
"     OOOO  OO O OOOOOO   OOOO   ",
"       OOO  O    OOOOOO   OOOO  ",
"O      OOOOO        OOOO  OO    ",
"X.O      O OOOOO    OOOO        ",
" OO           O    OOOOO        ",
"oOOOO                         OO",
"OOOOO+++OOO      OOO   OOOOOOO+O",
"OO+++++OOOOO++OOOOOOOOOOOOOOOOO+",
"OOOOOOOOOOOOOOOOOOO+++OOOO++++++",
"OOOOOOOOOOOOOOOOOOO+OOO+++OOOOOO",
"OOOOOOOOOOOOOOOO+++OOOOO+++++++O",
"++OOOOOOOOOO+++++OOOOOOOOOOO++OO",
"+++++OOOOOOOOOO+++++OOOOOO+++OO+",
"OOOO+++OOOOOOOOOOOO++++OOOO+OOOO",
"OOOOO+++++OOO++OOOOO++++OOOO+++O",
"OOOO+++OOOO++++OOOO++++++++OOOOO",
"+++++OOOOOOOOOOOO++++OOOOOOOOOOO",
"+++OOOOOOOOOOOOOO++OOOOOOOOOOOO+",
"OOO++++++OOOOOO+++OOOOOOOOOOOOOO",
"OOOOOOOO+++OOOO++++++++OOOOOOOOO",
"OOOOOOOOOOOOOOOOOOO++++++++++++O",
"++OOOOOOOOOOOOOOOOOOOOOOO+++++++",
"+OOOOOOOOOOOOO++OOOOOOOOOOOOOO++",
"OOOOOOOOOOOO+++++++OOOOOOOOO+++O",
"OOOOOOOOOOO++++OOOOOOOOOO+++OOOO",
"OOOOOOOOOOOOOOOOOOOOO+++++++OOOO",
"OOOOOOOOOOOOOOOOOO++++++++OOOOOO",
"OOOOOOOOOOOOOOO+++++OOOOOOOOOOOO",
"OOOOOOOOOOOOO+++OOOOOOOOOOOOOOOO",
"OOOOOOOOOOOOOOOOOOOOOOOOOOOOOOOO",
"OOOOOOOOOOOOOOOOOOOOOOOOOOOOOOOO",
"OOOOOOOOOOOOOOOOOOOOOOOOOOOOOOOO"
};
