/* XPM */
static char *result[] = {
/* columns rows colors chars-per-pixel */
"32 32 206 2 ",
"   c #4B1615",
".  c #6B2B1E",
"X  c #64241D",
"o  c #531B28",
"O  c #4C1D32",
"+  c #4C2726",
"@  c #5D2E2B",
"#  c #532729",
"$  c #5E312D",
"%  c #5E2235",
"&  c #543231",
"*  c #682A28",
"=  c #702F23",
"-  c #60332F",
";  c #7E3B29",
":  c #753425",
">  c #67283C",
",  c #732B3D",
"<  c #6A3636",
"1  c #743336",
"2  c #4F5D36",
"3  c #714234",
"4  c #79453A",
"5  c #427F34",
"6  c #4C6636",
"7  c #6C4D46",
"8  c #6B524E",
"9  c #74534D",
"0  c #734F49",
"q  c #756560",
"w  c #823A2B",
"e  c #8E3823",
"r  c #843B30",
"t  c #883B3A",
"y  c #953E3B",
"u  c #874129",
"i  c #8A442C",
"p  c #8F482F",
"a  c #90482E",
"s  c #8A4534",
"d  c #944C34",
"f  c #984D36",
"g  c #9C4C3B",
"h  c #96463A",
"j  c #9B5335",
"k  c #9B5339",
"l  c #935239",
"z  c #A44D3C",
"x  c #A1593E",
"c  c #873742",
"v  c #873B45",
"b  c #973D40",
"n  c #8C4D42",
"m  c #974444",
"M  c #9D5343",
"N  c #9E514B",
"B  c #965A46",
"V  c #855958",
"C  c #AF5143",
"Z  c #A55B42",
"A  c #A85844",
"S  c #B65B45",
"D  c #9B6350",
"F  c #AB6347",
"G  c #AC654A",
"H  c #A56248",
"J  c #B3654A",
"K  c #B26A4C",
"L  c #BA6A4C",
"P  c #B16547",
"I  c #A36850",
"U  c #B26C52",
"Y  c #B96C50",
"T  c #BB7454",
"R  c #B67256",
"E  c #8E7270",
"W  c #92776F",
"Q  c #B97C68",
"!  c #CD5E49",
"~  c #C66A4B",
"^  c #CF714E",
"/  c #D87247",
"(  c #C47653",
")  c #CF7551",
"_  c #C37A5B",
"`  c #C67951",
"'  c #D07955",
"]  c #C17E60",
"[  c #3A9033",
"{  c #1EAC26",
"}  c #25A529",
"|  c #24B32C",
" . c #2CBB33",
".. c #3AA535",
"X. c #44A83C",
"o. c #51AD45",
"O. c #4CA741",
"+. c #74B15B",
"@. c #928078",
"#. c #AF8764",
"$. c #ACBD7D",
"%. c #EC9151",
"&. c #C98161",
"*. c #CE8A69",
"=. c #D28764",
"-. c #DD9B75",
";. c #CD976F",
":. c #E59E78",
">. c #E19A73",
",. c #CBA77B",
"<. c #D3AE7E",
"1. c #F1AF66",
"2. c #E1A17A",
"3. c #F4BA79",
"4. c #EFA96E",
"5. c #FBC06B",
"6. c #5E738E",
"7. c #5D7E98",
"8. c #749A97",
"9. c #7CB5D4",
"0. c #71B5D9",
"q. c #63ADD6",
"w. c #D0AE81",
"e. c #D6B485",
"r. c #DABB8B",
"t. c #D8B887",
"y. c #DBBE93",
"u. c #D4BB93",
"i. c #CABA9C",
"p. c #E6A787",
"a. c #EDB290",
"s. c #F0B996",
"d. c #CDBDA7",
"f. c #D6C09E",
"g. c #DDC39B",
"h. c #D7C597",
"j. c #E3C486",
"k. c #E4C58C",
"l. c #E7C88F",
"z. c #E0C394",
"x. c #E1C69D",
"c. c #E3C99D",
"v. c #E9CD9A",
"b. c #E7CB94",
"n. c #D8C6A4",
"m. c #DECFB8",
"M. c #E1C7A0",
"N. c #E6CCA3",
"B. c #E8CEA6",
"V. c #E2CDAB",
"C. c #E8CFA8",
"Z. c #E5D0A7",
"A. c #EAD3A6",
"S. c #ECD2AB",
"D. c #E2CEB2",
"F. c #E5D3B5",
"G. c #E5D5BC",
"H. c #EEDCBA",
"J. c #EBD8B5",
"K. c #FFDABF",
"L. c #FFD7B9",
"P. c #F8C6A8",
"I. c #89BAD4",
"U. c #82BFDD",
"Y. c #94BED1",
"T. c #87C3DA",
"R. c #A9D0DD",
"E. c #BFD7DE",
"W. c #A1C9DC",
"Q. c #9ACDE8",
"!. c #8BC8EA",
"~. c #A8D6E8",
"^. c #BCDAE4",
"/. c #DDCDD1",
"(. c #CFD9D6",
"). c #C2D7DC",
"_. c #C3D8DE",
"`. c #CAD8D7",
"'. c #D3DCDA",
"]. c #D1DAD7",
"[. c #DDD1C6",
"{. c #E9DBC3",
"}. c #E9DECB",
"|. c #E7DCC6",
" X c #F8DEC6",
".X c #DDE4DF",
"XX c #EFE3CE",
"oX c #F1E4CB",
"OX c #F8E1C2",
"+X c #EBE5DA",
"@X c #F3EADC",
"#X c #F3E8D6",
"$X c #C2D9E1",
"%X c #CADDE3",
"&X c #CDE2E8",
"*X c #D5E2E4",
"=X c #D4E5EB",
"-X c #DFEBEA",
";X c #ECEBE2",
":X c #F4EDE2",
">X c #ECF1ED",
",X c #F9F5ED",
"<X c #F7F1E9",
"1X c #FAF7F2",
"2X c #FCFAF6",
"3X c #FDFCFA",
/* pixels */
"Y.W.^.$X_._.).).E.).).,X3X2X3X,X)._.).).).E.E.).).).)._.$X^.I.I.",
"9.Q.>X{.{.{.V.V.V.oX,X1X3X3X3X2XG.V.V.V.V.F.F.V.V.V.V.G.+X;X!.q.",
"~..XM.N.N.N.N.N.l.H.XX3X3X,X3X2X1XB.A.N.B.B.B.A.N.N.N.x.h.u.`.W.",
"_.@XV.S.x.M.S.S.k.v.H.OXoX:X3X<X,X{.S.S.S.S.S.S.S.g.c.Z.c.r.G.=X",
"$XD.g.B.B.3X3X2XZ.A.b.A.J.H.H.A.#Xk.S.S.S.S.S.S.S.S.B.S.S.x.y.'.",
"_.n.c.B.S.1X1X@XA.H.v.k.j.j.j.j.k.r./.:XJ.S.S.S.B.S.S.B.c.u.d.%X",
").V.N.r.l.N.oX@X@XH.l.1X,Xh.t.{.@Xt.2X2XM.n.S.J.x.c.S.S.A.g.i._.",
"_.V.N.S.l.b.1X1X1XOXt.#X,Xv.e.e.t.t.:Xn.D ..+.+.$.h.S.S.S.B.f.].",
").V.- 3.e }.,X,X@X<.<.N.h.<.t.e.e.X < / C / | | X.h.S.S.S.A.c.'.",
"_.|.- w 1.l.<Xz.e.z.oX,.<.<.* O N S ~ ) 4.^ { | o.N.S.S.J.S.M.'.",
"_.{.- y w   m.e.w.V.y.P.^ ` 2.3.% ~ ) ^ r V 3 3 o.V.S.S.S.S.J.=X",
"E.u.- y s A #.e.4 ,.  k P Z T T * %.c 9 @.3 3 3 $ $ - - S.B.C.*X",
").@ - m h A l e.: k F K K &.F G , z - - $ 3 3 - < - - - S.S.x.'.",
"_.- R h h d B e.d p K j T p f G b z r 3 - < - - - - - - - S.M.'.",
").- - U h B B e.u k R T <.v 4.-.L z r P T %.- - - - - - - B.M.'.",
").@ - - U M I G k ` ;.- - , J L K j L K.P.3.} | - - - - - - M.'.",
"_.- , o Q B ;.s J - - - - - m h f x s.OXp. X2 [ o.* - - - - M.'.",
"$X- 3Xo # *.n . - 2X3X- - - v h d 2. XL.p._ 7 2 O.- - - - - n..X",
"_.- m h 4 a.i . - - - - ~ R k f d *.&.L _ _ [ ..} - - - - - G.*X",
").- , m *.R Z a ~ ! ~ T U s d :.d ( _ &.] ' {  .} - - - - B.n.'.",
").- z = # U : x A u u u l a j :.>.T A x Y :  . .- - - - S.A.M.'.",
").- $ M O #.> S d d x a = i ; ' / a f @ @.[.- - - - 3 3 S.A.x.'.",
"_.V.- - U * > j i : j d p T _ A A t - $ 9 E $ $ - 3 3 S.S.B.g.].",
"_.V.N.- N I i i j : w x L 7.i w w c c c 8.- $ $ 3 3 S.S.S.B.c.'.",
"_.V.N.- = k i f j r b 6.+ + & t i k f y 3 3 3 3 3 N.S.S.S.C.M.'.",
"_.V.N.- = g ; Z J w E + 7 9 + # : p U - 3 Z.Z.V.x.x.S.S.S.S.M.'.",
"E.n.x.- 1 h w k T w W & q 8 7 - - - - - S.S.S.S.B.S.S.S.S.C.M.'.",
"E.d.r.- $ A . f T w ( - - - - - S.S.3 S.S.S.S.S.S.S.S.S.S.S.M.'.",
"^.+Xg.B.$ V * s U t $ - S.S.S.S.S.S.S.S.S.S.S.S.S.S.S.B.S.B.M.'.",
"R.;XV.B.$ - - - - $ $ C.B.N.B.B.S.S.S.B.M.B.S.S.S.S.B.x.c.y.F.=X",
"I.~.;X}.{.D.S.M.M.3 u.3 V.u.g.M.M.M.V.F.g.M.M.M.M.M.g.n.}.|.^.T.",
"U.0.^.=X&X*X*X'.'.'.].*X'.(.'.'.'.'.'.=X'.'.'.'.'.'.'.'.$X&XU.9."
};
