/* XPM */
static char *result[] = {
/* columns rows colors chars-per-pixel */
"32 32 114 2 ",
"   c #08790F",
".  c #4F5D36",
"X  c #575B3A",
"o  c #4C6636",
"O  c #536239",
"+  c #497737",
"@  c #427F34",
"#  c #497738",
"$  c #497838",
"%  c #6A4E41",
"&  c #685040",
"*  c #0B8111",
"=  c #0F8B16",
"-  c #128519",
";  c #13891A",
":  c #15951C",
">  c #159C1C",
",  c #189E1F",
"<  c #3C8532",
"1  c #3F8F36",
"2  c #359B32",
"3  c #3C9836",
"4  c #1BA322",
"5  c #1EAC26",
"6  c #1EAF28",
"7  c #21A126",
"8  c #20A927",
"9  c #23AD2A",
"0  c #2AAA2E",
"q  c #24B22C",
"w  c #28B12E",
"e  c #37A535",
"r  c #39A337",
"t  c #34AA35",
"y  c #2CB733",
"u  c #2DBC34",
"i  c #31B435",
"p  c #31B936",
"a  c #498039",
"s  c #4AA63F",
"d  c #4CA741",
"f  c #4EAA43",
"g  c #51AD45",
"h  c #D7A926",
"j  c #FFC82D",
"k  c #96B770",
"l  c #63ADD6",
"z  c #7CB5D4",
"x  c #71B5D9",
"c  c #848484",
"v  c #D9BC8F",
"b  c #CABA9C",
"n  c #D4BB93",
"m  c #DABE93",
"M  c #C3BBA4",
"N  c #D6C09E",
"B  c #DDC39C",
"V  c #D3CB9B",
"C  c #E1C69D",
"Z  c #E3C89E",
"A  c #D9C4A2",
"S  c #DDCEA1",
"D  c #D0C3AA",
"F  c #DECAA8",
"G  c #E1C7A0",
"H  c #E5CBA3",
"J  c #E8CEA6",
"K  c #E2CDAC",
"L  c #E8CFA8",
"P  c #ECD3AB",
"I  c #E3CFB1",
"U  c #E5D2B4",
"Y  c #E5D5BB",
"T  c #E9D6B8",
"R  c #FFE6A1",
"E  c #89BAD4",
"W  c #82BFDD",
"Q  c #94BED1",
"!  c #87C0D5",
"~  c #87C5DE",
"^  c #A1C9DC",
"/  c #A9D0DD",
"(  c #BFD7DF",
")  c #8BC8EA",
"_  c #9CCDE2",
"`  c #97CCED",
"'  c #AFD3E0",
"]  c #A1D8EF",
"[  c #B9D7E2",
"{  c #BDDAE3",
"}  c #BCDDE9",
"|  c #C6C6C6",
" . c #C7D4D0",
".. c #CFD9D6",
"X. c #C2D7DC",
"o. c #C3D8DE",
"O. c #CCDBDD",
"+. c #D1DAD7",
"@. c #D3DCDA",
"#. c #E7DCC6",
"$. c #E9DBC3",
"%. c #EADECB",
"&. c #EDE1CE",
"*. c #ECE5D7",
"=. c #E7E3D9",
"-. c #C2D9E1",
";. c #CADDE3",
":. c #CDE1E7",
">. c #CDE3E9",
",. c #D5E2E4",
"<. c #D4E5EB",
"1. c #DFEBEA",
"2. c #ECEBE2",
"3. c #ECF1ED",
/* pixels */
"Q ^ [ o.R -.X.X.X.X.R R X.X.( X.X.X.X.X.X.( ( X.X.X.X.o.{ ( ! E ",
"z ` 3.R R R K K R R R R R R R R K K K K K U Y K K K K Y *.2.) l ",
"' R R R R R R R R R R R R R R R R H H H J J J P H Z J C m n  ._ ",
"-.R R R R R R R R R R R R R R R R R P P P P P P P B Z J Z m Y <.",
"X.R R R R R R R R R R R R R R R R R P P P P P P P P J P P C N +.",
"R R R R R R R R R R R R R R R R R R P P P P P P J P P J Z v M ;.",
"R R R h R R R h R h R R h R h R R h c P L V P P Z Z P P J C b O.",
"R R R h R R R h h h h R h h h h R h c | | | | | | | | P P H B +.",
"R R R h R R R h h h h h h h h h h h c | | | | | | | | P P P Z @.",
"-.%.h h h R h j j h h j j h h j j j c - w q 5 q g | | P P P G @.",
"o.Y j j h h h j j h h j j h h j j j 5 * 4 8 4 q g | | P P L T ,.",
"( N j j j h h j j h h j j h h j j j q , 8 > : y g | | P P P K ,.",
"X.F j j j h h j j h h j j h h j j j > , 4 >   ; g | | P P P Z +.",
"X.F j j j h h j j h h j j h h j j j 9 , > w 4 4 g | | P P P Z @.",
"X.F j j j h h j j h h j j h h j j j 4 = * 4 q q g | | P P P G @.",
"X.K j j j h h j j h h j j h h j j j 5 w ; 8 7 9 g | | P P P G @.",
"X.U j j j h h j j h h j j h h j j j y u y 3 X < g | | P P P S +.",
"o.&.j j j h h j j h h j j h h j j j $ p u @ & o d | | P P P G @.",
"o.U j j j h h j j h h j j h h j j j X r u t a 2 0 | | P P Z T <.",
"X.K j j j h h j j h h j j h h j j j $ X + q 5 u 5 | | P P J A @.",
"X.K j j j h h j j h h j j h h j j j < & O i u u r | | P P P G @.",
"X.K j j j h h j j h h j j h h j j j w 1 r u u u g | | P P J C @.",
"X.K j j j h h j j h h j j h h j j j u u p u u u g | | P P J C +.",
"X.K j j j h h j j h h j j h h j j j u u u u q 6 g | | P P L C @.",
"X.K j j j j j j j j j j j j j j j j c g f g s s k | | P P P G @.",
"X.K | | j j j j j j j j j j j j | | c | | | | | | | | P P P G @.",
"X.N | | | j j j j j j j j j j | | | c | | | | | | | | P P L G @.",
"( D | | | | j j j j j j j j | | | | c P P P P P P P P P P P Z @.",
"-.=.| | | | | | | | | | | | | | | | P P P P P P P P P P P J Z +.",
"/ 1.| | | | | | | | | | | | | | | | P P Z P P L P J J C Z m Y >.",
"! ] 2.#.$.K U Z Z B N Y K n B G G G H U B Z G G Z G B A &.$.{ ) ",
"E x } <.>.,.,.@.+.+.+.,.@...@.@.@.@.O.>.@.@.@.@.@.@.+.O.o.>.z z "
};
