/* XPM */
static char *result[] = {
/* columns rows colors chars-per-pixel */
"32 32 187 2 ",
"   c #0F060B",
".  c #14070E",
"X  c #2A1D11",
"o  c #221A1C",
"O  c #2E1C1D",
"+  c #391717",
"@  c #341A1C",
"#  c #39171B",
"$  c #2F2013",
"%  c #332314",
"&  c #382717",
"*  c #3D2B1B",
"=  c #36271B",
"-  c #161E2A",
";  c #241921",
":  c #3D1920",
">  c #12273E",
",  c #2D2523",
"<  c #2D2826",
"1  c #21262D",
"2  c #3B2326",
"3  c #312923",
"4  c #3C2C24",
"5  c #312729",
"6  c #332A2A",
"7  c #3E2E2D",
"8  c #3F3024",
"9  c #3D332E",
"0  c #222830",
"q  c #372D30",
"w  c #382D30",
"e  c #2E353A",
"r  c #373335",
"t  c #3F3539",
"y  c #400E1A",
"u  c #59101A",
"i  c #760B0D",
"p  c #7D0A0B",
"a  c #6F1014",
"s  c #7B1719",
"d  c #442E1B",
"f  c #5C231E",
"g  c #532F1D",
"h  c #46301D",
"j  c #4A331E",
"k  c #61291B",
"l  c #401D23",
"z  c #5A1B24",
"x  c #681C20",
"c  c #4F2727",
"v  c #402F21",
"b  c #42272C",
"n  c #542021",
"m  c #4B3624",
"M  c #473628",
"N  c #48382A",
"B  c #513721",
"V  c #543A23",
"C  c #593D24",
"Z  c #543D2B",
"A  c #4E3737",
"S  c #493A34",
"D  c #5F3F30",
"F  c #55353C",
"G  c #7B2322",
"H  c #633324",
"J  c #66392A",
"K  c #613035",
"L  c #723335",
"P  c #723739",
"I  c #57412D",
"U  c #5A422B",
"Y  c #5E4126",
"T  c #4C4136",
"R  c #544536",
"E  c #5B4334",
"W  c #52473A",
"Q  c #54493C",
"!  c #5A4939",
"~  c #624327",
"^  c #654629",
"/  c #6B4A2C",
"(  c #6A402C",
")  c #714E2E",
"_  c #624434",
"`  c #654E36",
"'  c #6C4B35",
"]  c #60483C",
"[  c #7A5431",
"{  c #1A2C41",
"}  c #142E4B",
"|  c #1C3047",
" . c #1A354D",
".. c #032B53",
"X. c #002D5B",
"o. c #0D2E50",
"O. c #0D3053",
"+. c #153454",
"@. c #1B3755",
"#. c #1E3B54",
"$. c #173759",
"%. c #183758",
"&. c #17385C",
"*. c #183A5F",
"=. c #26394C",
"-. c #283242",
";. c #333A43",
":. c #3C3F43",
">. c #213752",
",. c #253D56",
"<. c #384144",
"1. c #24435D",
"2. c #394754",
"3. c #224964",
"4. c #2E4965",
"5. c #284563",
"6. c #315267",
"7. c #3E5166",
"8. c #3F546B",
"9. c #484347",
"0. c #4A464A",
"q. c #4A484B",
"w. c #5B484C",
"e. c #5D5041",
"r. c #454D59",
"t. c #42535F",
"y. c #58565A",
"u. c #784848",
"i. c #635343",
"p. c #6B5344",
"a. c #60574A",
"s. c #6C544C",
"d. c #6C5C4C",
"f. c #71584A",
"g. c #664F52",
"h. c #73614C",
"j. c #6C665F",
"k. c #746756",
"l. c #41556C",
"z. c #465C6D",
"x. c #696362",
"c. c #716760",
"v. c #706862",
"b. c #796665",
"n. c #7D7673",
"m. c #840E0E",
"M. c #801618",
"N. c #84181A",
"B. c #802B2C",
"V. c #823937",
"C. c #875D36",
"Z. c #96524F",
"A. c #945350",
"S. c #84725B",
"D. c #816C6B",
"F. c #9D6F6D",
"G. c #9D6A67",
"H. c #8B726F",
"J. c #9F716F",
"K. c #9C7572",
"L. c #A06C69",
"P. c #A2736F",
"I. c #A17471",
"U. c #8A817D",
"Y. c #A2807D",
"T. c #8C8783",
"R. c #888588",
"E. c #858382",
"W. c #97938E",
"Q. c #9D9694",
"!. c #9D9995",
"~. c #A38381",
"^. c #AA8F8C",
"/. c #A78B87",
"(. c #A5938E",
"). c #AB918D",
"_. c #AC9D99",
"`. c #A89B97",
"'. c #A5A29E",
"]. c #A4A2A2",
"[. c #AAA6A3",
"{. c #ACA9A4",
"}. c #AEADAB",
"|. c #B4AEA8",
" X c #B0B1AF",
".X c #B7B5B3",
"XX c white",
/* pixels */
"XXX.X.X.X.*.*.*.*.X.X.*.*.X.*.+.,.*.*.*.*.*...X.X.*.*.*.*.X.X.X.",
"XXX.X.X.X.X.X.*.*.*.X.X.*.X...h.S.%.*.*.*.*.*.X.X.X.*.*.*.*.X.X.",
"*.X.X.X.X.X.X.*.*.*.*.*.X.X...` ` ..X.X.*.*.*.*.X.X.*.*.X.X.X.X.",
"*.*.*.X.X.X.X.X.X.*.X.*.*.*.1.U j o.X.X.*.*.*.*.X.X.X.X.X.X.X.X.",
"XX*.*.X.X.X.X.X.X.X...X.X...r.d.i.2...*.*.%.*.*.X.X.X.X.X.X.X.X.",
"*.*.*.*.*.X.X.O.;.Q N R Q N y.k.d.! T T ! N R :.O.X.X.X.X.X.*.*.",
"*.*.*.*.*.3.3.<.! i.' H s.p.D ! k.] i.d.J J d.R ;.*.*.*.*.*.3.*.",
"*.*.3.3.3.3.3.=.j.T.K.m.K.'.L _ Z x (.(.s Z.W.j.,.*.*.*.*.*.*.3.",
"*.*.*.*.*.*.*.5.[.{./.m.F.|.V.p.f.G _.).m.L.[.].1.*.3.3.3.3.3.3.",
"*.*.*.*.*.*.*.5. X{.^.m.L.|.B.H E s (.).m.P.[.}.6.3.*.*.*.*.*.*.",
"*.*.*.*.*.*.*.5..X[.).m.F._.s k g i ~.).m.P.{.}.6.3.3.3.3.3.3.*.",
"3.3.*.*.*.*.*.4..X'./.m.J._.N.f g i Y.).m.G.[.}.4.*.*.*.3.3.*.*.",
"3.3.3.3.3.*.*.8..X!.I.m.~./.s H V a F._.N.A.'.}.l.*.3.3.3.*.*.3.",
"*.*.*.*.3.3.3.l.].y.w.u x.w.y m m + F x.z K y.R.l.*.*.3.*.*.*.*.",
"*.*.*.*.*.3.3.z.n.9.b : 9.S . d v   q 0.: : 9.j.l.*.*.*.3.3.3.*.",
"*.*.*.*.3.3.3.7.j.Q.u.P H.b.# 0.i.+ g.T.u.P !.c.t.3.3.*.*.*.*.*.",
"3.3.3.3.3.*.*.r.!.H.n E B % d U U d d * ` c H.W.r.*.*.*.*.*.*.*.",
"3.3.3.*.*.*.%.<.E.D.f / % d h B j h d X ^ f D.E.<.&.*.*.*.*.*.3.",
"*.*.*.3.3.3.3.#. .-.I / % h h j j d m X ^ I -.| } *.*.*.*.*.*.*.",
"*.*.*.*.*.*.*.*.3.e M / % h h h d d j % ^ V e *.*.*.*.*.*.*.*.*.",
"*.*.*.*.*.*.*.*.,.6 v ) % d d d d d d $ ^ V 3 1.3.3.3.3.3.3.3.*.",
"3.3.*.*.*.*.*.*.>.3 4 ) & B C V C C C % ^ B , >.*.3.3.3.3.3.3.3.",
"3.*.*.*.*.*.*.*.>., v / d ^ ) / / / / d ^ M , #.*.*.*.*.*.*.3.3.",
"*.*.*.*.*.*.*.*.%.< V / & X X X X X X % / B < %.*.*.*.*.3.3.3.*.",
"*.*.*.*.*.*.*.*.&.> U C C * j V V B h j Y N { &.*.3.3.3.*.*.*.*.",
"*.*.*.*.*.*.*.*.*.$.r 9 E V / ~ Y / C E S r 1.3.3.3.3.3.*.*.*.*.",
"*.*.*.*.*.*.*.*.*.&.o + A M d C ^ h h S # o 1.3.3.3.*.*.*.*.*.*.",
"*.*.*.*.*.*.*.*.*.*.- = w 9 m ) C.V 9 q 5 - *.*.*.*.*.*.*.*.*.*.",
"*.*.*.*.*.*.*.*.*.*.} > O 2 B ) C.C 4 @ 1 } *.*.*.*.*.*.*.*.*.*.",
"*.*.*.*.*.*.*.*.*.*.*.} ; o % ^ [ & o o } *.*.*.*.*.*.*.*.*.*.*.",
"*.*.*.*.*.*.*.*.*.*.*.*.} > , j j , > } *.*.*.*.*.*.*.*.*.*.*.*.",
"*.*.*.*.*.*.*.*.*.*.*.*.*.*.| m v | *.*.*.*.*.*.*.*.*.*.*.*.*.*."
};
