/* XPM */
static char *result[] = {
/* columns rows colors chars-per-pixel */
"32 32 152 2 ",
"   c #20160D",
".  c #33271E",
"X  c #33281F",
"o  c #3E2B19",
"O  c #2B1D27",
"+  c #271E25",
"@  c #18212F",
"#  c #12273F",
"$  c #282026",
"%  c #2D2928",
"&  c #362C25",
"*  c #3A2D22",
"=  c #342629",
"-  c #342D28",
";  c #3C332C",
":  c #282E37",
">  c #2E373D",
",  c #3F3430",
"<  c #3E3B3C",
"1  c #432E1B",
"2  c #46301C",
"3  c #4B321D",
"4  c #53361F",
"5  c #70201E",
"6  c #412426",
"7  c #49282B",
"8  c #5E2521",
"9  c #4E3620",
"0  c #4E3925",
"q  c #47392C",
"w  c #533621",
"e  c #533A23",
"r  c #583E26",
"t  c #553F29",
"y  c #413638",
"u  c #463C35",
"i  c #513E30",
"p  c #732D29",
"a  c #6A342F",
"s  c #71302B",
"d  c #6A3831",
"f  c #5E4126",
"g  c #5C4631",
"h  c #5E4C38",
"j  c #634427",
"k  c #634428",
"l  c #6B4A2B",
"z  c #734F2F",
"x  c #77522F",
"c  c #604531",
"v  c #604D38",
"b  c #765132",
"n  c #7A5331",
"m  c #1B2E43",
"M  c #142E4B",
"N  c #1C3047",
"B  c #1B354C",
"V  c #022B56",
"C  c #002D5B",
"Z  c #0C2E52",
"A  c #0D3054",
"S  c #173657",
"D  c #1B3755",
"F  c #1E3A54",
"G  c #173759",
"H  c #17385C",
"J  c #183A5F",
"K  c #283242",
"L  c #26394C",
"P  c #293C4E",
"I  c #22364A",
"U  c #3C3F44",
"Y  c #343A42",
"T  c #213752",
"R  c #263F57",
"E  c #233D59",
"W  c #384144",
"Q  c #24435D",
"!  c #364859",
"~  c #224964",
"^  c #2E4965",
"/  c #284563",
"(  c #315267",
")  c #3F546B",
"_  c #45494C",
"`  c #474F5B",
"'  c #714842",
"]  c #655442",
"[  c #685844",
"{  c #7E534C",
"}  c #75665C",
"|  c #786D5D",
" . c #766B5B",
".. c #41556C",
"X. c #475F6F",
"o. c #756E66",
"O. c #89110F",
"+. c #841212",
"@. c #851B1A",
"#. c #8B1D1C",
"$. c #8A2625",
"%. c #892927",
"&. c #8B2C2A",
"*. c #91302E",
"=. c #8D3231",
"-. c #933F3E",
";. c #96403D",
":. c #815B36",
">. c #86613D",
",. c #944442",
"<. c #994C4B",
"1. c #99514E",
"2. c #9B5350",
"3. c #9D5F5F",
"4. c #816140",
"5. c #9C7348",
"6. c #AB7E53",
"7. c #816C6B",
"8. c #83786E",
"9. c #83746B",
"0. c #8B7E76",
"q. c #A06765",
"w. c #A16867",
"e. c #A98257",
"r. c #8D8077",
"t. c #8C8079",
"y. c #858382",
"u. c #B5928F",
"i. c #BA9592",
"p. c #BB9B98",
"a. c #AAAAA9",
"s. c #BBA8A5",
"d. c #BEB1AD",
"f. c #BFB5B0",
"g. c #B8B8B7",
"h. c #BCBBB9",
"j. c #B4B5B3",
"k. c #C3ADA9",
"l. c #C6B1AE",
"z. c #C7B4B0",
"x. c #C9B9B6",
"c. c #C5BCB9",
"v. c #CBBDBA",
"b. c #CCC1BD",
"n. c #CAC6C2",
"m. c #CCC9C6",
"M. c #D0C6C2",
"N. c #D2C8C6",
"B. c #D3CCCA",
"V. c #D7D0CE",
"C. c #D9D3D0",
"Z. c white",
/* pixels */
"Z.C C C C J J J J C C J J C J Z F J J J J J C C C J J J J C C C ",
"Z.C C C C C C J J J C C J C C y ; H J J J J J C C C J J J J C C ",
"J C C C C C C J J J J J C C V g ; V C C J J J J C C J J C C C C ",
"J J J C C C C C C J C J J J E g q A C C J J J J C C C C C C C C ",
"Z.J J C C C C C C C C C C C ! |  .R C J J J J J C C C C C C C C ",
"J J J J J C C A P m m P m I _ o.| _ I m P N m ! Z C C C C C J J ",
"J J J J J ~ ~ W [ j k [ r v h ] ] h v r [ j j v Y J J J J J ~ J ",
"J J ~ ~ ~ ~ ~ L o.8.d a 9.' 8 } } 8 ' 9.a d 8.o.L J J J J J J ~ ",
"J J J J J J J / a.B.,.#.x.<.+.s.s.+.<.x.#.,.N.a.Q J ~ ~ ~ ~ ~ ~ ",
"J J J J J J J / j.V.;.#.x.1.O.k.k.+.2.x.#.,.C.j.( ~ J J J J J J ",
"J J J J J J J / g.C.-.#.v.1.O.k.k.O.2.v.#.-.V.g.( ~ ~ ~ ~ ~ ~ J ",
"~ ~ J J J J J ^ h.N.&.=.b.,.O.k.k.O.,.v.*.*.N.h.^ J J J ~ ~ J J ",
"~ ~ ~ ~ ~ J J ) n.v.#.-.v.%.@.l.z.@.%.v.-.#.v.n...J ~ ~ ~ J J ~ ",
"J J J J ~ ~ ~ ..m.l.@.<.x.$.$.b.b.$.$.x.<.@.l.m...J J ~ J J J J ",
"J J J J J ~ ~ X.m.p.+.3.c.$.*.M.M.*.$.c.3.+.p.m...J J J ~ ~ ~ J ",
"J J J J ~ ~ ~ ..m.i.+.w.c.%.=.b.b.=.%.c.w.+.i.m.X.~ ~ J J J J J ",
"~ ~ ~ ~ ~ J J ` b.u.+.q.d.$.=.d.f.=.$.d.q.+.u.b.` J J J J J J J ",
"~ ~ ~ J J J H W y.7.5 { r.p a r.0.s p t.{ 5 7.y.U G J J J J J ~ ",
"J J J ~ ~ ~ ~ F B K g 9 2 2 2 r 9 1 9 1 9 c K m M J J J J J J J ",
"J J J J J J J J ~ > b w o 2 1 4 2 1 2 1 w b > J J J J J J J J J ",
"J J J J J J J J F & x 1 o 2 3 4 3 4 2 2 3 z & Q ~ ~ ~ ~ ~ ~ ~ J ",
"~ ~ J J J J J J F . x o o o 4 3 3 w 1 1 2 x . T J ~ ~ ~ ~ ~ ~ ~ ",
"~ J J J J J J J T X x 3 2 2 4 z l e 3 3 3 n X T J J J J J J ~ ~ ",
"J J J J J J J J F % l f j f z n :.z r j j l % D J J J J ~ ~ ~ J ",
"J J J J J J J J H m g k r j >.5.5.>.f f k g m G J ~ ~ ~ J J J J ",
"J J J J J J J J J G < i 4 3 x e.6.b 9 9 g < Q ~ ~ ~ ~ ~ J J J J ",
"J J J J J J J J J S + 7 ;   f e.e.t   7 ; + Q ~ ~ ~ J J J J J J ",
"J J J J J J J J J G @ 6 y * 0 { { 0 * y = @ H J J J J J J J J J ",
"J J J J J J J J J J Z : = , f l l f , & : M J J J J J J J J J J ",
"J J J J J J J J J J J M O = t n n e & $ M J J J J J J J J J J J ",
"J J J J J J J J J J J H M m - l l - # M J J J J J J J J J J J J ",
"J J J J J J J J J J J J J H N 0 0 N J J J J J J J J J J J J J J "
};
