/* XPM */
static char *result[] = {
/* columns rows colors chars-per-pixel */
"32 32 75 1 ",
"  c #372719",
". c #1A283E",
"X c #2B2531",
"o c #2E2D37",
"O c #272C3A",
"+ c #202F3E",
"@ c #4A301D",
"# c #1A2C49",
"$ c #192E4C",
"% c #192D4E",
"& c #1D2F4F",
"* c #1B304E",
"= c #1D304E",
"- c #062557",
"; c #082557",
": c #08255A",
"> c #0A255A",
", c #0C275B",
"< c #08255D",
"1 c #0A255D",
"2 c #08275D",
"3 c #0D2A5B",
"4 c #0D295E",
"5 c #1A2F52",
"6 c #1A2F54",
"7 c #1A3157",
"8 c #1D3555",
"9 c #1F3456",
"0 c #1B3159",
"q c #1B315A",
"w c #1B325B",
"e c #1C325A",
"r c #1E355B",
"t c #1D335C",
"y c #1B345D",
"u c #1C345E",
"i c #1D355E",
"p c #1D355F",
"a c #1E365E",
"s c #243246",
"d c #27354B",
"f c #21314C",
"g c #25334F",
"h c #29374A",
"j c #273A4B",
"k c #293949",
"l c #323A46",
"z c #383D46",
"x c #323D49",
"c c #203252",
"v c #213450",
"b c #223452",
"n c #203155",
"m c #22375A",
"M c #243A5F",
"N c #273D5D",
"B c #183260",
"V c #1D3460",
"C c #1D3561",
"Z c #1C3660",
"A c #1D3660",
"S c #1F3860",
"D c #243B61",
"F c #233C61",
"G c #253C60",
"H c #214157",
"J c #254054",
"K c #22445E",
"L c #1E4664",
"P c #1E4765",
"I c #2A4062",
"U c #274A65",
"Y c #334763",
"T c #8B0000",
"R c #B3ABA4",
/* pixels */
"<<<<<CCCC<<CC<C3MCCCCC<<<CCCC<<<",
"<<<<<<<CCC<<C<<iiiCCCCC<<<CCCC<<",
"C<<<<<<CCCCC<<<ii;<<CCCC<<CC<<<<",
"42C<<<<<<C<CCCZ@@-<<CCCC<<<<<<<<",
"<CC<<<<<1,:>,:N@@8:aiyaA<<<<<<<<",
"BCCCC<<<*::::::@@::::::h<<<<<<CC",
"CCCCCPPPd@@@@@@@@@@@@@@lCCCCCCPC",
"CCPPPPPCeRRTRRT@@TRRTRRmCCCCCCCP",
"CCCCCCCCARRTRRT@@TRRTRRDCCPPPPPP",
"CCCCCCCCARRTRRT@@TRRTRRUPPCCCCCC",
"CCCCCCCCpRRTRRT@@TRRTRRFPPPPPPPC",
"PPCCCCCCSRRTRRT@@TRRTRRICCCCPPCC",
"PPPPPCCCGRRTRRT@@TRRTRRYCCPPPCCP",
"CCCCPPPCnRRTRRT@@TRRTRRgCCCPCCCC",
"CCCCCPPLxRRTRRT@@TRRTRRzrCCCPPRC",
"CCCCPPPtC@@@@@@@@@@@@@@CHPPCCCCC",
"PPPPPCCV&v @@      @@ v=yCCCCCCC",
"PPPCCCCCCC @@      @@ CCCCCCCCCP",
"CCCPPPPPPC @@      @@ VCCCCCCCCC",
"CCCCCCCCPK @@      @@ JCCCCCCCCC",
"CCCCCCCCCb @@      @@ kPPPPPPPPC",
"PPCCCCCCCb @@@    @@@ sCCPPPPPPP",
"PCCCCCCCC9 @@@@@@@@@@ fCCCCCCCPP",
"CCCCCCCCCu @@@@@@@@@@ wCCCCCPPPC",
"CCCCCCCCCC  @@@@@@@@  CCCPPPCCCC",
"CCCCCCCCCCc @@@@@@@@ jPPPPPPCCCC",
"CCCCCCCCCC#  @@@@@@  +PPPPCCCCCC",
"CCCCCCCCCC0O  @@@@@ o5CCCCCCCCCC",
"CCCCCCCCCCC6X @@@@  $CCCCCCCCCCC",
"CCCCCCCCCCCC6. @@  %CCCCCCCCCCCC",
"CCCCCCCCCCCCCV    uCCCCCCCCCCCCC",
"CCCCCCCCCCCCCCCq7CCCCCCCCCCCCCCC"
};
