/* XPM */
static char *result[] = {
/* columns rows colors chars-per-pixel */
"32 32 168 2 ",
"   c #0E0A0D",
".  c #1A0607",
"X  c #170808",
"o  c #111117",
"O  c #191419",
"+  c #1D1216",
"@  c #3E0707",
"#  c #2E1F12",
"$  c #312114",
"%  c #3E2A19",
"&  c #171A23",
"*  c #1C242E",
"=  c #1D2733",
"-  c #1F2B34",
";  c #17293E",
":  c #1B2A3E",
">  c #2C2624",
",  c #2D2C2F",
"<  c #352223",
"1  c #372D26",
"2  c #3E2F2F",
"3  c #3E3126",
"4  c #3B332D",
"5  c #232A33",
"6  c #222D3A",
"7  c #322F31",
"8  c #25313D",
"9  c #2C333D",
"0  c #3F3234",
"q  c #3D3937",
"w  c #373738",
"e  c #36393F",
"r  c #3C3A3C",
"t  c #323233",
"y  c #4C0A0B",
"u  c #600607",
"i  c #620809",
"p  c #422D1A",
"a  c #46301C",
"s  c #49331E",
"d  c #4B2628",
"f  c #472B2C",
"g  c #5F2D2F",
"h  c #473424",
"j  c #4D3623",
"k  c #4E3925",
"l  c #443528",
"z  c #4E3C2B",
"x  c #503721",
"c  c #543A23",
"v  c #5A3E25",
"b  c #543E2B",
"n  c #422D30",
"m  c #413235",
"M  c #463D34",
"N  c #4E3A36",
"B  c #4C3637",
"V  c #503F3E",
"C  c #583F3F",
"Z  c #602E30",
"A  c #5D4126",
"S  c #57402D",
"D  c #5C422B",
"F  c #4D4136",
"G  c #4C423A",
"H  c #544435",
"J  c #5F4A37",
"K  c #59453B",
"L  c #5C4B3C",
"P  c #614327",
"I  c #664629",
"U  c #6D4B2C",
"Y  c #724E2E",
"T  c #75502F",
"R  c #654B33",
"E  c #624F3A",
"W  c #714F32",
"Q  c #6E563D",
"!  c #775332",
"~  c #7A5431",
"^  c #755538",
"/  c #78573A",
"(  c #755A3F",
")  c #172E46",
"_  c #1B2E43",
"`  c #142E4A",
"'  c #1C334B",
"]  c #002D5B",
"[  c #083058",
"{  c #163456",
"}  c #163659",
"|  c #17385C",
" . c #183A5F",
".. c #233344",
"X. c #2C3643",
"o. c #2C3847",
"O. c #22354C",
"+. c #233A4D",
"@. c #2A3A4A",
"#. c #3D3E42",
"$. c #343D48",
"%. c #233A54",
"&. c #203B58",
"*. c #1E3E61",
"=. c #2C414F",
"-. c #3F4145",
";. c #3A424A",
":. c #34444D",
">. c #254255",
",. c #2D4353",
"<. c #25455C",
"1. c #2D435B",
"2. c #344352",
"3. c #394654",
"4. c #3B4659",
"5. c #224761",
"6. c #224964",
"7. c #2E4E65",
"8. c #4A4042",
"9. c #41474C",
"0. c #45484D",
"q. c #4A4A4C",
"w. c #424546",
"e. c #5A4443",
"r. c #5C5449",
"t. c #444D56",
"y. c #5C4950",
"u. c #4F5251",
"i. c #5D5052",
"p. c #694F48",
"a. c #605142",
"s. c #6C5844",
"d. c #645449",
"f. c #6D5D4A",
"g. c #665657",
"h. c #625C51",
"j. c #7D674C",
"k. c #6C6155",
"l. c #7B6651",
"z. c #776857",
"x. c #75685A",
"c. c #415169",
"v. c #4E5B6B",
"b. c #545E6B",
"n. c #605A69",
"m. c #69606A",
"M. c #7C6565",
"N. c #616B7B",
"B. c #855A31",
"V. c #93683E",
"C. c #896441",
"Z. c #806149",
"A. c #986E43",
"S. c #9C724E",
"D. c #816D57",
"F. c #877157",
"G. c #967352",
"H. c #AD7C4E",
"J. c #817668",
"K. c #9D7167",
"L. c #9A7E62",
"P. c #806E74",
"I. c #9E7F7E",
"U. c #A78158",
"Y. c #A6807E",
"T. c #B99B75",
"R. c #9D8A8A",
"E. c white",
/* pixels */
"E.] ] ] ]  . . .| ] ] *.| ]  .]  . . . .[ *.] ] ] *.*.| | ] ] ] ",
"E.] ] ] ] ] ]  .| *.] ] | ] ] ] ]  . . .*.*.*.] ] ] | *.*.| ] ] ",
" .] ] ] ] ] ]  .*.| *.*.] ] ] ] ] ] ] ] [ *.[ *.] ] *.} ] ] ] ] ",
" . . .] ] ] ] ] ] } ] *.*.|  . .} ] ] ] *.*.*.*.] ] ] ] ] ] ] ] ",
"E.[ *.] ] ] ] ] ] ] ] ] ] ] *.{ f.' ]  . . .*.| ] ] ] ] ] ] ] ] ",
"*.*.| *. .] ] ] ] ] ] ] ] ] ] ` Z ) ] ] ] ] ] ] ] ] ] ] ] ]  . .",
"*.| *.| | 6.6.6.[ *.*.] ] ] ] +.E 0. . .] ] ] |  . .*. .| | *.*.",
"[ *.6.6.6.6.6.*.*.| *.*.5.5. .t.f.x.t. . . . .*. . .*.[ *.*.*.6.",
"*.[ *.*. . . . . . . . . . . .2.f.L.x.7.6.6. . . . .6.6.6.6.6.6.",
"*.*.*.[  . . . . . . . . . . .1.F.T.K.v. . . .6.6.*. .*. . . . .",
"*.*.*.*. . . . . . . . . . . .+.D u.R.P.*. . . .6.*.6.*.6.6.6. .",
"*.6.*.[  . . . . . . . .6.6.6.2.D ..N.Y.c. . . .*.*.*.*.6.6. . .",
"6.6.6.6.6. . . . . . . . . . .,.b 8.$.I.n. . . . . .6.6.6. . .6.",
" . . . .6.6.6. . . . . . . . .%.b B o M.m.6.6. . . . .6. . . . .",
" . . . . .6.6.6.6.6. . . .6.6.%.r.4   g.b.6.6.6.| } *. .6.6.6. .",
" . . . .6.6.6. . . . .6.6.6.6.5.k.h.< y.7.6.<.=.M s.i.*. . . . .",
"6.6.6.6.6.[ | *.*.*.*. . . . .+.a.2 + y.6. .@.c c ! A.Z.q.%.*.| ",
"6.6.6.*.*.*.*.| [ *.[ *. . . .O.p.n O 4. . . .X.l c B.V.H.G.3.6.",
" . .*.*.6.6.6.6.6.*.*.|  .' _ ..k.d.& }  . . .o./ ~ V.A.C.S.U.0.",
" .| *.[ *.*.| ) = : ,.} 5 > > 4 Z.T.w.5 - ' <.F U x ! ( Q D.z.2.",
">.L K o. . ...3 z A S S A D P k.J.l.D k l 1 +.r.D S 2.<.,.r.s.%.",
"R A I U 9 w.D A c p x A % p p L x.H % a c A z R D F 6.6.6.<.=.:.",
"A c 3 S c s A U Y % I T % s s p D % s % T U c A S q  . .*.| 6.=.",
"9 4 _ q c D Q ^ T # A T % s p % A % % $ T ^ J S j 9  . .6.6.6.| ",
"| {  .' l K Z V E # v ! p j x j a a p $ L N g N 1 >.6.6. . . . .",
"| |  . .) n u X w M P W M q.r q.F h p 4 t . i 2 ' 6.6.6. . . . .",
" . . . .| ..m < y e.R L ;._ * ..;.H S e.y < 0 O.6.6. . . . . . .",
" . . . . .} o.n @ f b N = 9 q.9 = H z d @ 0 ..{  . . . . . . . .",
"*.| *. . . .{ : 5 , j z e X.#.X.e b h , * ; {  . . . . . . . . .",
"*.*.|  . . . . .{ ) ; = 5 8 6 8 5 = ; ` {  . . . . . . . . . . .",
"[ *. . . . . . . . . .| } { [ { { | | *. . . .*. . . . . . . . .",
"*.*. . . . . . . . . . . . .*.} *.| *.|  . . . . . . . . . . . ."
};
