/* XPM */
static char *result[] = {
/* columns rows colors chars-per-pixel */
"32 32 146 2 ",
"   c #20160D",
".  c #33271E",
"X  c #33281F",
"o  c #3E2B19",
"O  c #271E25",
"+  c #2B1D27",
"@  c #18212F",
"#  c #282026",
"$  c #2D2928",
"%  c #362C25",
"&  c #3A2D22",
"*  c #342629",
"=  c #342D28",
"-  c #3C332C",
";  c #282E37",
":  c #2E373D",
">  c #3F3430",
",  c #3E3B3C",
"<  c #432E1B",
"1  c #46301C",
"2  c #4B321D",
"3  c #53361F",
"4  c #70201E",
"5  c #412426",
"6  c #49282B",
"7  c #5E2521",
"8  c #4E3620",
"9  c #4E3925",
"0  c #47392C",
"q  c #533621",
"w  c #533A23",
"e  c #583E26",
"r  c #553F29",
"t  c #463C35",
"y  c #413638",
"u  c #513E30",
"i  c #732D29",
"p  c #6A342F",
"a  c #71302B",
"s  c #6A3831",
"d  c #5E4126",
"f  c #5C4631",
"g  c #5E4C38",
"h  c #634427",
"j  c #634428",
"k  c #6B4A2B",
"l  c #734F2F",
"z  c #77522F",
"x  c #604531",
"c  c #604D38",
"v  c #765132",
"b  c #7A5331",
"n  c #1B2E43",
"m  c #142E4B",
"M  c #1C3047",
"N  c #1B354C",
"B  c #022B56",
"V  c #0C2E52",
"C  c #002D5B",
"Z  c #0D3054",
"A  c #05305C",
"S  c #173657",
"D  c #1E3A54",
"F  c #15375C",
"G  c #17385C",
"H  c #183A5F",
"J  c #283242",
"K  c #22364A",
"L  c #26394C",
"P  c #293C4E",
"I  c #343A42",
"U  c #213752",
"Y  c #263F57",
"T  c #233D59",
"R  c #384144",
"E  c #24435D",
"W  c #364859",
"Q  c #284563",
"!  c #224964",
"~  c #2E4965",
"^  c #315267",
"/  c #3F546B",
"(  c #45494C",
")  c #474F5B",
"_  c #714842",
"`  c #655442",
"'  c #685844",
"]  c #7E534C",
"[  c #75665C",
"{  c #766B5B",
"}  c #786D5D",
"|  c #41556C",
" . c #475F6F",
".. c #756E66",
"X. c #89110F",
"o. c #841212",
"O. c #851B1A",
"+. c #8B1D1C",
"@. c #8A2625",
"#. c #892927",
"$. c #8B2C2A",
"%. c #91302E",
"&. c #8D3231",
"*. c #933F3E",
"=. c #815B36",
"-. c #86613D",
";. c #944442",
":. c #994C4B",
">. c #99514E",
",. c #9B5350",
"<. c #9D5F5F",
"1. c #816140",
"2. c #9C7348",
"3. c #AB7E53",
"4. c #816C6B",
"5. c #83746B",
"6. c #83786E",
"7. c #8B7E76",
"8. c #A06765",
"9. c #A16867",
"0. c #A98257",
"q. c #8C8079",
"w. c #858382",
"e. c #B5928F",
"r. c #BA9592",
"t. c #BB9B98",
"y. c #AAAAA9",
"u. c #BBA8A5",
"i. c #BEB1AD",
"p. c #B4B5B3",
"a. c #B8B8B7",
"s. c #BCBBB9",
"d. c #C3ADA9",
"f. c #C6B1AE",
"g. c #C7B4B0",
"h. c #C9B9B6",
"j. c #C5BCB9",
"k. c #CBBDBA",
"l. c #CCC1BD",
"z. c #CAC6C2",
"x. c #CCC9C6",
"c. c #D0C6C2",
"v. c #D2C8C6",
"b. c #D3CCCA",
"n. c #D7D0CE",
"m. c #D9D3D0",
/* pixels */
"C C C C C H H H H C C H H C H Z D H H H H H C C C H H H H C C C ",
"C C C C C C C H H H C C H C C t - G H H H H H C C C H H H H C C ",
"H C C C C C C H H H H H C C B u - B C C H H H H C C H H C C C C ",
"A C H C C C C C C H C H H H T f 0 Z C C H H H H C C C C C C C C ",
"C H H C C C C C C C C C C C W } { Y C H H H H H C C C C C C C C ",
"F H H H H C C Z P n n P n N ( } } ( K n P n n P Z C C C C C H H ",
"H H H H H ! ! R ' j j ' e c g ` ` g c e ' j j ' I H H H H H ! H ",
"H H ! ! ! ! ! L ..6.s p 5._ 7 [ [ 7 _ 5.p s 6...L H H H H H H ! ",
"H H H H H H H Q y.b.;.O.h.:.o.u.u.o.:.h.+.;.b.y.E H ! ! ! ! ! ! ",
"H H H H H H H Q p.m.;.+.h.>.o.d.d.o.,.h.+.;.m.p.^ ! H H H H H H ",
"H H H H H H H Q a.n.*.+.k.,.X.d.d.o.,.k.+.*.n.a.^ ! ! ! ! ! ! H ",
"! ! H H H H H ~ j.v.$.&.l.;.X.f.d.X.;.k.%.$.v.s.~ H H H ! ! H H ",
"! ! ! ! ! H H / z.k.+.*.h.$.o.g.g.X.$.k.*.+.k.z.| H ! ! ! H H ! ",
"H H H H ! ! ! | x.g.O.:.j.@.@.l.l.@.@.k.:.O.f.x.| H H ! H H H H ",
"H H H H H ! !  .x.t.o.<.j.@.%.v.c.&.@.k.<.o.t.x.| H H H ! ! ! H ",
"H H H H ! ! ! / x.r.o.8.j.@.&.k.l.&.#.j.9.o.r.x. .! ! H H H H H ",
"! ! ! ! ! H H ) j.e.o.9.i.@.&.g.g.&.@.i.9.o.e.l.) F H H H H H H ",
"! ! ! H H H G R w.4.4 ] 7.i a 7.7.a a q.] 4 4.w.R F H H H H H ! ",
"H H H ! ! ! ! D D : x 8 & 2 < e 8 < 2 o 8 f J M m H H H H H H H ",
"H H H H H H H H ! : l q < < < 3 2 < 2 < 3 l : H H H H H H H H H ",
"H H H H H H H H S % l < o < 2 3 2 2 < 1 1 z % E ! ! ! ! ! ! ! H ",
"! ! H H H H H H U . z < o < q 2 2 w < 1 1 z X K H ! ! ! ! ! ! ! ",
"! H H H H H H H U . z 2 < 2 q k k w 2 1 2 z X D H H H H H H ! ! ",
"H H H H H H H H D $ k d k e l =.=.l s d h k $ D H H H H ! ! ! H ",
"H H H H H H H H G n f j e j 1.2.2.-.e e k f n F H ! ! ! H H H H ",
"H H H H H H H H H S , r 8 8 v 3.3.v q 8 f , E ! ! ! ! ! H H H H ",
"H H H H H H H H H S O 6 -   r 3.0.e   - 5 # E ! ! ! H H H H H H ",
"H H H H H H H H H F @ 5 y & 9 1.1.9 & y & @ G H H H H H H H H H ",
"H H H H H H H H H H m ; * > d k k j > * ; m H H H H H H H H H H ",
"H H H H H H H H H H H m + * w b b w * + m H H H H H H H H H H H ",
"H H H H H H H H H H H H m m = k k = n V H H H H H H H H H H H H ",
"H H H H H H H H H H H H H G M 9 9 M H G H H H H H H H H H H H H "
};
