/* XPM */
static char *result[] = {
/* columns rows colors chars-per-pixel */
"32 32 161 2 ",
"   c #0E0A0D",
".  c #1A0607",
"X  c #111117",
"o  c #1D1216",
"O  c #191419",
"+  c #3E0707",
"@  c #2E1F12",
"#  c #312114",
"$  c #3E2A19",
"%  c #171A23",
"&  c #1C242E",
"*  c #1D2733",
"=  c #1F2B34",
"-  c #17293E",
";  c #1B2A3E",
":  c #2C2624",
">  c #2D2C2F",
",  c #352223",
"<  c #372D26",
"1  c #3E2F2F",
"2  c #3E3126",
"3  c #3B332D",
"4  c #232A33",
"5  c #222D3A",
"6  c #322F31",
"7  c #25313D",
"8  c #2C333D",
"9  c #323233",
"0  c #3F3234",
"q  c #3D3937",
"w  c #373738",
"e  c #36393F",
"r  c #3C3A3C",
"t  c #4C0A0B",
"y  c #600607",
"u  c #620809",
"i  c #422D1A",
"p  c #46301C",
"a  c #49331E",
"s  c #4B2628",
"d  c #472B2C",
"f  c #473424",
"g  c #4D3623",
"h  c #4E3925",
"j  c #443528",
"k  c #4E3C2B",
"l  c #503721",
"z  c #543A23",
"x  c #5A3E25",
"c  c #543E2B",
"v  c #422D30",
"b  c #413235",
"n  c #4C3637",
"m  c #463D34",
"M  c #4E3A36",
"N  c #503F3E",
"B  c #602E30",
"V  c #5D4126",
"C  c #57402D",
"Z  c #5C422B",
"A  c #4D4136",
"S  c #4C423A",
"D  c #544435",
"F  c #5F4A37",
"G  c #59453B",
"H  c #5C4B3C",
"J  c #614327",
"K  c #664629",
"L  c #6D4B2C",
"P  c #75502F",
"I  c #654B33",
"U  c #624F3A",
"Y  c #714F32",
"T  c #6E563D",
"R  c #775332",
"E  c #7A5431",
"W  c #755538",
"Q  c #78573A",
"!  c #755A3F",
"~  c #172E46",
"^  c #1B2E43",
"/  c #142E4A",
"(  c #1C334B",
")  c #002D5B",
"_  c #05305C",
"`  c #083058",
"'  c #163456",
"]  c #15365A",
"[  c #17385C",
"{  c #183A5F",
"}  c #233344",
"|  c #2C3643",
" . c #2C3847",
".. c #22354C",
"X. c #233A4D",
"o. c #2A3A4A",
"O. c #3D3E42",
"+. c #343D48",
"@. c #233A54",
"#. c #203B58",
"$. c #1E3E61",
"%. c #2C414F",
"&. c #34444D",
"*. c #3A424A",
"=. c #254255",
"-. c #2D4353",
";. c #25455C",
":. c #2D435B",
">. c #344352",
",. c #394654",
"<. c #3B4659",
"1. c #224761",
"2. c #224964",
"3. c #2E4E65",
"4. c #424546",
"5. c #4A4042",
"6. c #41474C",
"7. c #45484D",
"8. c #4A4A4C",
"9. c #5A4443",
"0. c #5C5449",
"q. c #444D56",
"w. c #5C4950",
"e. c #4F5251",
"r. c #5D5052",
"t. c #694F48",
"y. c #605142",
"u. c #6C5844",
"i. c #645449",
"p. c #6D5D4A",
"a. c #665657",
"s. c #6C6155",
"d. c #7B6651",
"f. c #776857",
"g. c #756759",
"h. c #766B5E",
"j. c #415169",
"k. c #4E5B6B",
"l. c #545E6B",
"z. c #605A69",
"x. c #7C6565",
"c. c #616B7B",
"v. c #855A31",
"b. c #93683E",
"n. c #896441",
"m. c #806149",
"M. c #986E43",
"N. c #9C724E",
"B. c #816D57",
"V. c #877157",
"C. c #967352",
"Z. c #AD7C4E",
"A. c #817668",
"S. c #9D7167",
"D. c #9A7E62",
"F. c #806E74",
"G. c #9E7F7E",
"H. c #A78158",
"J. c #A6807E",
"K. c #B99B75",
"L. c #9D8A8A",
/* pixels */
") ) ) ) ) { { { _ ) ) $.$.) $.) ] ] $.{ $.] ) ) ) { { { { ) ) ) ",
") ) ) ) ) ) ) { $.] ) ) ] ) ) ) ) $.{ { $._ $.) ) ) { { { { ) ) ",
"{ ) ) ) ) ) ) { $.$.$.$.) ) ) ) ) ) ) ) ] $.] $.) ) { { ) ) ) ) ",
"_ ) { ) ) ) ) ) ) ] ) $.$.] $.] ] _ ) ) $.] $.] ) ) ) ) ) ) ) ) ",
") { { ) ) ) ) ) ) ) ) ) ) ) $.' t...) $.$.] ] $.) ) ) ) ) ) ) ) ",
"] { { { { ) ) ) ) ) ) ) ) ) ) / x / ) ) ) ) ) ) ) ) ) ) ) ) { { ",
"$.$.{ { $.2.2.2.$.` [ ) ) ) ) X.U 7.#.[ ) ) ) $.{ { { { { { $.$.",
"$.` 2.2.2.2.2.{ $.[ $.$.2.2.{ q.a.f.q.$.$.$.$.] { { { { { $.$.2.",
"$.$.$.$.{ { { { { { { { { { { >.p.D.g.3.2.2.{ { { { 2.2.2.2.2.2.",
"$.` $._ { { { { { { { { { { { :.V.K.S.k.{ { { 2.2.$.{ $.{ { { { ",
"] $.$.] { { { { { { { { { { { @.Z e.L.F.1.{ { { 2.$.2.$.2.2.2.{ ",
"2.2.] $.{ { { { { { { { 2.2.2.-.x } c.G.j.{ { { $.$.$.$.2.2.{ { ",
"2.2.2.2.2.{ { { { { { { { { { o.c 5.+.J.z.{ { { { { 2.2.2.{ { 2.",
"{ { { { 2.2.2.{ { { { { { { $.@.c n X x.z.2.2.{ { { { 2.{ { { { ",
"{ { { { { 2.2.2.2.2.{ { { 2.2.@.y.3   a.l.2.2.2.$.] $.] 2.2.2.{ ",
"{ { { { 2.2.2.{ { { { 2.2.2.2.1.s.a.: w.3.2.;.-.m T r.$.{ { { { ",
"2.2.2.2.2.{ { { { { { { { { { X.i.1 o w.1.{ o.z x Y M.m.8.@.$.$.",
"2.2.2.$.{ { { { { { { { { { { X.t.v O <.{ { [ | j c v.b.Z.C.>.2.",
"{ { { 1.2.2.1.2.1.{ { { { ( - } s.i.% [ { { $.o.R E b.M.n.N.H.6.",
"{ { { { { { { ^ = 7 -.[ = : : 3 m.K.4.= = ( 2.S L l R ! T B.f.>.",
"o.H H  .[ { ..2 h C V C V Z Z s.A.d.Z h f < X.U Z C ,.;.>.0.u.[ ",
"I Z K L 8 4.Z x z $ l V $ p p H h.D $ $ z x c I Z A ;.2.2.;.%.&.",
"V x 2 x z a V L L $ K E $ p p p V p p p P L z C C q { { { { 1.%.",
"8 3 ^ w z Z T Q P @ V P $ p p $ z $ $ # P W F C h 8 { { 2.2.1.[ ",
"] ' { ( j G B N U # x R i g z f p p p @ H M B M < =.2.2.{ { { { ",
"{ { { { ~ v y . w m J Y M 7.r 8.S p $ 0 9 . u 3 ( 1.2.2.{ { { { ",
"{ { { { { ^ b , t 9.I H *.; & ; *.D Z G t , 0 } 2.2.{ { { { { { ",
"{ { { { { ]  .v + d c M * 8 e.8 = D M s + b } ] $.{ { { { { { { ",
"$.` $._ { { ' 5 & 6 f k e | 4.8 O.h f > & - ] { { { { { { { { { ",
"$.$.$.$.{ { $.[ ' ~ ; * 4 7 5 8 4 * - / ' { { { { { { { { { { { ",
"$._ $.$.$.$.$.] { { { { ' ' ' ' ` $.$.] { { { { { { { { { { { { ",
"$.$._ $.] ` $.$.{ { { { { { { [ { ` $.$.{ { { { { { { { { { { { "
};
