/* XPM */
static char *result[] = {
/* columns rows colors chars-per-pixel */
"32 32 71 1 ",
"  c #2E232A",
". c #39292C",
"X c #4A301D",
"o c #482528",
"O c #182742",
"+ c #1E2E46",
"@ c #1F2E46",
"# c #1E2F46",
"$ c #1F2F47",
"% c #192C4C",
"& c #1B2E4C",
"* c #192D4E",
"= c #182D4F",
"- c #1A2E4F",
"; c #1D3A4F",
": c #082357",
"> c #0A2658",
", c #08265A",
"< c #08255D",
"1 c #08275D",
"2 c #0D295E",
"3 c #132A54",
"4 c #122C55",
"5 c #122D57",
"6 c #1E3457",
"7 c #1C3C53",
"8 c #1B3359",
"9 c #1B345D",
"0 c #1C345E",
"q c #22354D",
"w c #24364C",
"e c #28394E",
"r c #2C3D4F",
"t c #373C44",
"y c #243553",
"u c #213656",
"i c #243554",
"p c #2A3B50",
"a c #293C51",
"s c #223758",
"d c #253B5B",
"f c #273E59",
"g c #183260",
"h c #1D3561",
"j c #1C3660",
"k c #1D3660",
"l c #283F60",
"z c #1E425E",
"x c #394346",
"c c #3E4046",
"v c #24435B",
"b c #36475A",
"n c #1E4360",
"m c #1E4664",
"M c #1E4765",
"N c #284163",
"B c #294264",
"V c #2F4666",
"C c #2C5067",
"Z c #2D5168",
"A c #3F516C",
"S c #474A4D",
"D c #454A4F",
"F c #484E5C",
"G c #40526D",
"H c #41526D",
"J c #445C70",
"K c #445E70",
"L c #940000",
"P c #865D33",
"I c #D3C6C4",
/* pixels */
"<<<<<hhhh<<hh<h3uhhhhh<<<hhhh<<<",
"<<<<<<<hhh<<h<,XX9hhhhh<<<hhhh<<",
"h<<<<<<hhhhh<<>XX:<<hhhh<<hh<<<<",
"21h<<<<<<h<hhhdXX5<<hhhh<<<<<<<<",
"<hh<<<<<<<<<<<bXXf<hhhhh<<<<<<<<",
"ghhhh<<4p+@a$qDXXSw$r#+p4<<<<<hh",
"hhhhhMMxXXXXXXXXXXXXXXXXthhhhhMh",
"hhMMMMMeIILLILLIILLILLIIehhhhhhM",
"hhhhhhhlIILLILLIILLILLIIlhMMMMMM",
"hhhhhhhNIILLILLIILLILLIICMhhhhhh",
"hhhhhhhBIILLILLIILLILLIIZMMMMMMh",
"MMhhhhhVIILLILLIILLILLIIVhhhMMhh",
"MMMMMhhAIILLILLIILLILLIIAhMMMhhM",
"hhhhMMMHIILLILLIILLILLIIHhhMhhhh",
"hhhhhMMJIILLILLIILLILLIIGhhhMMMh",
"hhhhMMMGIILLILLIILLILLIIKMMhhhhh",
"MMMMMhjFIILLILLIILLILLIIFjhhhhhh",
"MMMhhh0cIILLILLIILLILLIIc0hhhhhM",
"hhhMMMM7; XXXX    XXXX &-hhhhhhh",
"hhhhhhhhm XXX      XXX khhhhhhhh",
"hhhhhhhhs XX        XX vMMMMMMMh",
"MMhhhhhhy XX        XX yhMMMMMMM",
"Mhhhhhhhi XXX      XXX ihhhhhhMM",
"hhhhhhhh6 XXXX    XXXX 6hhhhMMMh",
"hhhhhhhh0 XXXXX  XXXX  0hMMMhhhh",
"hhhhhhhhh  XXXXXXXXXX nMMMMMhhhh",
"hhhhhhhhh8 XXXXXXXXXX zMMMhhhhhh",
"hhhhhhhhh0  XXXXXXXXo 0hhhhhhhhh",
"hhhhhhhhhh*  XXPPXX   hhhhhhhhhh",
"hhhhhhhhhhh%  XPPX. %hhhhhhhhhhh",
"hhhhhhhhhhhj=  PP O=jhhhhhhhhhhh",
"hhhhhhhhhhhhhh    hhhhhhhhhhhhhh"
};
