/* XPM */
static char *result[] = {
/* columns rows colors chars-per-pixel */
"32 32 185 2 ",
"   c #0E080C",
".  c #161114",
"X  c #180708",
"o  c #270C0D",
"O  c #24171B",
"+  c #231D1D",
"@  c #271314",
"#  c #391011",
"$  c #2F2012",
"%  c #332316",
"&  c #3A2717",
"*  c #3D2A18",
"=  c #192635",
"-  c #1F2933",
";  c #1C2B3C",
":  c #292325",
">  c #2D292A",
",  c #232529",
"<  c #342B25",
"1  c #362E29",
"2  c #372529",
"3  c #3F3126",
"4  c #35302A",
"5  c #3B322C",
"6  c #212A35",
"7  c #2F2F32",
"8  c #3E2C30",
"9  c #2C333C",
"0  c #393632",
"q  c #32363B",
"w  c #36393E",
"e  c #3C3C3D",
"r  c #3A3734",
"t  c #510809",
"y  c #5A090A",
"u  c #401B1C",
"i  c #6C1113",
"p  c #432E1B",
"a  c #46311C",
"s  c #4B331E",
"d  c #4A1F20",
"f  c #4A2022",
"g  c #442B2D",
"h  c #5C2224",
"j  c #4C3623",
"k  c #4B3826",
"l  c #42352B",
"z  c #483529",
"x  c #4C3C2E",
"c  c #503720",
"v  c #543A23",
"b  c #593E25",
"n  c #543D29",
"m  c #453634",
"M  c #483733",
"N  c #4E3D30",
"B  c #463F39",
"V  c #4A3E38",
"C  c #443B34",
"Z  c #513538",
"A  c #543F3E",
"S  c #5C3A39",
"D  c #5D4026",
"F  c #52402F",
"G  c #5B422C",
"H  c #4D4137",
"J  c #45403C",
"K  c #4C433C",
"L  c #544334",
"P  c #5A4534",
"I  c #54443B",
"U  c #5A4B3B",
"Y  c #59453C",
"T  c #614327",
"R  c #664629",
"E  c #724E2E",
"W  c #6B4C30",
"Q  c #644F3F",
"!  c #634932",
"~  c #714F30",
"^  c #6E5137",
"/  c #6E533C",
"(  c #735131",
")  c #7E5733",
"_  c #7F5833",
"`  c #152C45",
"'  c #192D45",
"]  c #192F49",
"[  c #1E3747",
"{  c #16304D",
"}  c #19324D",
"|  c #1C394E",
" . c #052D57",
".. c #002D5B",
"X. c #073059",
"o. c #163353",
"O. c #17375A",
"+. c #183758",
"@. c #17385C",
"#. c #183A5F",
"$. c #263240",
"%. c #2A3744",
"&. c #25364A",
"*. c #29374B",
"=. c #26384E",
"-. c #2E3B46",
";. c #313844",
":. c #343F4D",
">. c #3A3E45",
",. c #223750",
"<. c #223B57",
"1. c #2D3D50",
"2. c #223E5C",
"3. c #303F50",
"4. c #413F40",
"5. c #1F4259",
"6. c #3C4046",
"7. c #3D444B",
"8. c #3E484D",
"9. c #23455C",
"0. c #28495F",
"q. c #354150",
"w. c #394656",
"e. c #214761",
"r. c #2B4564",
"t. c #224964",
"y. c #2F4E64",
"u. c #324661",
"i. c #4A4142",
"p. c #42454C",
"a. c #41494B",
"s. c #464546",
"d. c #594340",
"f. c #5F4A44",
"g. c #514C49",
"h. c #524242",
"j. c #5B5045",
"k. c #5F594E",
"l. c #5C524D",
"z. c #4F4F51",
"x. c #424759",
"c. c #464E54",
"v. c #4D5253",
"b. c #515253",
"n. c #55535A",
"m. c #605245",
"M. c #6C5640",
"N. c #675C4F",
"B. c #6B5B48",
"V. c #775E4A",
"C. c #755C44",
"Z. c #665C50",
"A. c #6B5D57",
"S. c #7D674D",
"D. c #676257",
"F. c #6D6152",
"G. c #6F665B",
"H. c #7B6957",
"J. c #495E75",
"K. c #68626F",
"L. c #65616A",
"P. c #825934",
"I. c #91693E",
"U. c #9A6A3F",
"Y. c #91663B",
"T. c #836440",
"R. c #81674D",
"E. c #886A4C",
"W. c #966D46",
"Q. c #9C7249",
"!. c #856F58",
"~. c #A3724A",
"^. c #A47D55",
"/. c #886C6C",
"(. c #957E62",
"). c #877A7F",
"_. c #847C71",
"`. c #967678",
"'. c #907D7A",
"]. c #9C7473",
"[. c #A07B65",
"{. c #988167",
"}. c #B69974",
"|. c #B09190",
" X c white",
/* pixels */
" X........#.#.#.#.....#.#...#...#.#.#.#.#.#.......#.#.#.#.......",
" X............#.#.#.....#...X. ...#.#.#.#.#.#.......#.#.#.#.....",
"#.............#.#.#.#.#.....7.v.........#.#.#.#.....#.#.........",
"#.#.#.............#...#.#.#.e P ........#.#.#.#.................",
" X#.#.....................X.J I  .....#.#.#.#.#.................",
"#.#.#.#.#.................c.F.Z.+...........................#.#.",
"#.#.#.#.#.t.t.t.#.#.#...2.H.!.j.+.#.#.#.......#.#.#.#.#.#.#.t.#.",
"#.#.t.t.t.t.t.#.#.#.#.#.L.[.}.Z.2.#.#.#.#.#.#.#.#.#.#.#.#.#.#.t.",
"#.#.#.#.#.#.#.#.#.#.#.r.`.'.B.I #.#.#.t.t.t.#.#.#.#.t.t.t.t.t.t.",
"#.#.#.#.#.#.#.#.#.#.#.K.|.J.0 n #.#.#.t.#.#.#.t.t.t.#.#.#.#.#.#.",
"#.#.#.#.#.#.#.#.#.#.r.`.).*.V x t.t.t.#.#.#.#.#.t.t.t.t.t.t.t.#.",
"t.t.#.#.#.#.#.#.#.#.u.].n.O Y x e.#.#.#.#.#.#.#.#.#.#.#.t.t.#.#.",
"t.t.t.t.t.#.#.#.#.#.w./.7   M I e.t.t.t.#.#.#.#.#.#.t.t.t.#.#.t.",
"#.#.#.#.0.b.h.&.#.#.#.n.8 1 F.D.2.#.#.t.t.t.t.#.#.#.#.t.#.#.#.#.",
"#.#.#.q.V.W.W k C 0.#.x.Z + l.g.<.#.#.#.t.t.t.t.#.#.#.#.t.t.t.#.",
"#.w.E.Q.U.E j z ;.#.#.y.4.  S i.@.#.#.t.t.t.t.t.t.t.t.#.#.#.#.#.",
"B.{.~.W.Y.P.( B +.#.#.#.&.. Z.g.o.#.9.t.t.#.#.#.#.#.#.#.#.#.#.#.",
"S.{.C.T.I.( R ( =.#.{ ' ` j.}.L , , 6 o.#.O.` ' +.#.#.#.#.#.#.9.",
"e R.m.8.a.P s ( 8.' : < 1 / {.F.U n v x K C 3 < 6 O.#.#.,.>.:.#.",
":.7.+.#.#.1.n ^ K x b b s j G._.U s s s b s v D D 4.<.%.W E E s.",
"#.#.#.#.#.<.n ! v v D v a a k G a s a a _ v p R b v x n D j c P ",
"t.t.#.#.#.+.z n G ( P.T % a a c * a * a _ a p _ ) ~ s D r r b w ",
"t.#.#.#.#.#.7 z I Y Q b @ s p s a s a s ) p & / f.f.P k | o.[ 5.",
"#.#.#.#.#.#.{ 7 h y > J % s s x K K H j ) s l 4.# i m ; e.t.t.#.",
"#.#.#.#.#.#.#.o.2 d X g V j H a.9 - :.g.W b 4.o @ d %.e.#.#.#.#.",
"#.#.#.#.#.#.#.#.' s.d y 4.D i.= $.w ; q P Q h t 4.-.5.t.#.#.#.#.",
"#.#.#.#.#.#.#.#.@.' : O M v B 6 >.z.6 ;.n N : + q 2.#.#.#.#.#.#.",
"#.#.#.#.#.#.#.#.#.O.{ ` 6 2 1 q 9 9 q 0 > > ; { O.@.#.#.#.#.#.#.",
"#.#.#.#.#.#.#.#.#.#.#.#.@.5.| } ' ] ' ` o.O.#.#.#.#.#.#.#.#.#.#.",
"#.#.#.#.#.#.#.#.#.#.#.#.#.#.#.#.#.#.#.#.#.#.#.#.#.#.#.#.#.#.#.#.",
"#.#.#.#.#.#.#.#.#.#.#.#.#.#.#.#.#.#.#.#.#.#.#.#.#.#.#.#.#.#.#.#.",
"#.#.#.#.#.#.#.#.#.#.#.#.#.#.#.#.#.#.#.#.#.#.#.#.#.#.#.#.#.#.#.#."
};
