/* XPM */
static char *result[] = {
/* columns rows colors chars-per-pixel */
"32 32 161 2 ",
"   c #0F060B",
".  c #14070E",
"X  c #2A1D11",
"o  c #331917",
"O  c #37151B",
"+  c #2F2013",
"@  c #332315",
"#  c #36271B",
"$  c #3D2B1B",
"%  c #2C1F28",
"&  c #3D1920",
"*  c #182839",
"=  c #2F2721",
"-  c #252228",
";  c #3C2C24",
":  c #342C2C",
">  c #3D332D",
",  c #222A37",
"<  c #292C34",
"1  c #212F3F",
"2  c #372D30",
"3  c #392E31",
"4  c #2E3238",
"5  c #3F3731",
"6  c #32323C",
"7  c #3F3539",
"8  c #400E1A",
"9  c #59101A",
"0  c #760B0D",
"q  c #7D0A0B",
"w  c #6F1014",
"e  c #7E1617",
"r  c #78151A",
"t  c #771A1A",
"y  c #442E1B",
"u  c #532F1D",
"i  c #46301D",
"p  c #4A331E",
"a  c #61291B",
"s  c #401D23",
"d  c #5A1B24",
"f  c #402F21",
"g  c #42272C",
"h  c #433326",
"j  c #4C3623",
"k  c #45392F",
"l  c #513721",
"z  c #543A23",
"x  c #593D24",
"c  c #4E3737",
"v  c #453D35",
"b  c #483835",
"n  c #5F3F30",
"m  c #55353C",
"M  c #7B2322",
"N  c #633324",
"B  c #66392A",
"V  c #613035",
"C  c #723335",
"Z  c #70383B",
"A  c #5E4126",
"S  c #56412D",
"D  c #59422D",
"F  c #474037",
"G  c #46413B",
"H  c #4C453E",
"J  c #5B4334",
"K  c #56493B",
"L  c #5B4B3B",
"P  c #624327",
"I  c #654629",
"U  c #67482D",
"Y  c #6B4A2B",
"T  c #714E2E",
"R  c #624434",
"E  c #6C4B35",
"W  c #7A5431",
"Q  c #152F4B",
"!  c #17314C",
"~  c #1C334D",
"^  c #022B55",
"/  c #002D5B",
"(  c #06305B",
")  c #153353",
"_  c #1C3552",
"`  c #15365A",
"'  c #18375A",
"]  c #17385C",
"[  c #183A5F",
"{  c #213143",
"}  c #293343",
"|  c #273846",
" . c #24354A",
".. c #263949",
"X. c #323B45",
"o. c #393C40",
"O. c #233F5D",
"+. c #213F60",
"@. c #254154",
"#. c #24455C",
"$. c #284361",
"%. c #224964",
"&. c #2A4C64",
"*. c #324962",
"=. c #434346",
"-. c #494544",
";. c #4C4842",
":. c #4A464A",
">. c #4A484B",
",. c #5A4C46",
"<. c #59544C",
"1. c #4E4F54",
"2. c #595755",
"3. c #575A5D",
"4. c #654448",
"5. c #754543",
"6. c #774C4F",
"7. c #635343",
"8. c #6B5344",
"9. c #625548",
"0. c #6C544C",
"q. c #6B5C4C",
"w. c #675A5B",
"e. c #726453",
"r. c #736859",
"t. c #696463",
"y. c #796665",
"u. c #737068",
"i. c #72787E",
"p. c #840E0E",
"a. c #801618",
"s. c #84181A",
"d. c #802B2C",
"f. c #823937",
"g. c #875D36",
"h. c #96524F",
"j. c #9D6A67",
"k. c #9D6F6D",
"l. c #9F716F",
"z. c #9C7572",
"x. c #A06C69",
"c. c #A2736F",
"v. c #A17471",
"b. c #8A817D",
"n. c #A2807D",
"m. c #767D85",
"M. c #8C8784",
"N. c #8C8D8D",
"B. c #939393",
"V. c #9C9B99",
"C. c #A38381",
"Z. c #A78985",
"A. c #A48D8A",
"S. c #AA8F8C",
"D. c #A5938E",
"F. c #AB918D",
"G. c #AB9A95",
"H. c #AC9D99",
"J. c #ADA6A0",
"K. c #B3ACA6",
"L. c #B5AFA9",
/* pixels */
"/ / / / / [ [ [ [ / / [ [ / [ ( O.[ [ [ [ [ ( / / [ [ [ [ / / / ",
"/ / / / / / / [ [ [ / / [ / / 3.u.[ [ [ [ [ [ / / / [ [ [ [ / / ",
"[ / / / / / / [ [ [ [ [ / / / ;.L ^ / / [ [ [ [ / / [ [ / / / / ",
"( / [ / / / / / / [ / [ [ [ [ v h ^ / / [ [ [ [ / / / / / / / / ",
"/ [ [ / / / / / / / ^ ^ / ^ O.<.,.' / [ ] ] [ [ / / / / / / / / ",
"[ [ [ [ [ / / / ! ;.v F -.5 <.r.q.,.v G H k H ../ / / / / / [ [ ",
"[ [ [ [ [ %.%.%.| 9.E N 0.8.n ,.e.L 7.q.B B q.X.[ [ [ [ [ [ %.[ ",
"[ [ %.%.%.%.%.[ ' i.z.q z.J.C J S t D.D.e h.N._ [ [ [ [ [ [ [ %.",
"[ [ [ [ [ [ [ [ [ m.A.p.x.L.f.5.0.M H.S.p.k.B.+.[ [ %.%.%.%.%.%.",
"[ [ [ [ [ [ [ [ [ m.S.p.l.K.d.N B t G.S.p.v.B.&.%.%.[ [ [ [ [ [ ",
"[ [ [ [ [ [ [ [ [ m.F.p.x.H.s.a u 0 C.F.p.c.B.+.%.%.%.%.%.%.%.[ ",
"%.%.[ [ [ [ [ [ [ M.Z.p.l.H.a.u u 0 n.F.p.j.V.$.[ [ [ [ %.%.[ [ ",
"%.%.%.%.%.[ [ [ +.N.z.p.C.A.r N z w k.H.a.h.G.*.[ [ %.%.%.[ [ %.",
"[ [ [ [ %.%.%.[ ) 1.4.9 w.,.8 j j O m t.d V 3.~ [ [ [ %.[ [ [ [ ",
"[ [ [ [ [ %.%.%.X.:.g & :.7 . $ f   : :.g s >.X.[ [ [ [ %.%.%.[ ",
"[ [ [ [ %.%.%.] =.B.6.C b.y.O K 7.o 0.M.5.Z B.2.@.%.%.[ [ [ [ [ ",
"%.%.%.%.%.[ [ [ ! ~ } R l @ i D S y $ $ E 6 ~ ~ ] [ [ [ [ [ [ [ ",
"%.%.%.[ [ [ [ [ [ [ ~ U @ y i l j y i X I | [ [ [ [ [ [ [ [ [ %.",
"[ [ [ %.%.%.%.%.%.[ ..Y @ i i p i y i @ P o.[ [ [ [ [ [ [ [ [ [ ",
"[ [ [ [ [ [ [ [ %.#.> Y @ i i i i i i @ I z @.[ [ [ [ [ [ [ [ [ ",
"[ [ [ [ [ [ [ [ [  .; T @ y y y i y y o I z | %.%.%.%.%.%.%.%.[ ",
"%.%.[ [ [ [ [ [ [ _ h T @ l x z x x x @ I l { [ [ %.%.%.%.%.%.%.",
"%.[ [ [ [ [ [ [ [ _ : Y y I Y Y Y T Y i I h ~ [ [ [ [ [ [ [ %.%.",
"[ [ [ [ [ [ [ [ [ ] 1 I $ X X + X X X X Y 4 ` ] [ [ [ [ %.%.%.[ ",
"[ [ [ [ [ [ [ [ [ [ ` v x $ p z z z y z S ) [ [ [ %.%.%.[ [ [ [ ",
"[ [ [ [ [ [ [ [ [ [ _ 2 J z Y P A Y z D k ..%.%.%.%.%.%.[ [ [ [ ",
"[ [ [ [ [ [ [ [ [ [ Q O c h y x P i h b & * %.%.%.%.[ [ [ [ [ [ ",
"[ [ [ [ [ [ [ [ [ [ ` , 3 > p T g.z > 2 < ) [ [ [ [ [ [ [ [ [ [ ",
"[ [ [ [ [ [ [ [ [ [ [ ) - = l T g.x : % ! [ [ [ [ [ [ [ [ [ [ [ ",
"[ [ [ [ [ [ [ [ [ [ [ [ ) * - P W # * Q [ [ [ [ [ [ [ [ [ [ [ [ ",
"[ [ [ [ [ [ [ [ [ [ [ [ [ [ ) < : Q ` [ [ [ [ [ [ [ [ [ [ [ [ [ ",
"[ [ [ [ [ [ [ [ [ [ [ [ [ [ [ ` ) [ [ [ [ [ [ [ [ [ [ [ [ [ [ [ "
};
