/* XPM */
static char *result[] = {
/* columns rows colors chars-per-pixel */
"32 32 192 2 ",
"   c #5E392F",
".  c #60332F",
"X  c #62392E",
"o  c #643E32",
"O  c #7C3D34",
"+  c #08790F",
"@  c #5A4330",
"#  c #4F5D36",
"$  c #575B3A",
"%  c #565D34",
"&  c #664737",
"*  c #72433D",
"=  c #7B453A",
"-  c #4D6835",
";  c #556437",
":  c #497635",
">  c #477A36",
",  c #684B44",
"<  c #794C48",
"1  c #704A44",
"2  c #685141",
"3  c #7D574A",
"4  c #7E5850",
"5  c #7F7243",
"6  c #7B6356",
"7  c #853F31",
"8  c #8E482F",
"9  c #8C4335",
"0  c #84493E",
"q  c #8C473A",
"w  c #914A33",
"e  c #964D3C",
"r  c #9E4F38",
"t  c #82563E",
"y  c #9D543C",
"u  c #A0573E",
"i  c #844C43",
"p  c #894841",
"a  c #895147",
"s  c #9D5C45",
"d  c #9B5B48",
"f  c #A75D42",
"g  c #B35E43",
"h  c #9D6149",
"j  c #92665C",
"k  c #976957",
"l  c #AA674D",
"z  c #B76D4F",
"x  c #B6684D",
"c  c #A66751",
"v  c #AE6B51",
"b  c #B16C51",
"n  c #A97150",
"m  c #B97F5F",
"M  c #9F7764",
"N  c #9B7570",
"B  c #BF7F62",
"V  c #C37958",
"C  c #0B8211",
"Z  c #0F8B16",
"A  c #148B1B",
"S  c #118918",
"D  c #159C1C",
"F  c #179A1E",
"G  c #1C9A23",
"H  c #3E8D33",
"J  c #3C8532",
"K  c #3B9934",
"L  c #1BA322",
"P  c #1FAB26",
"I  c #1EAF28",
"U  c #22A427",
"Y  c #23AD2A",
"T  c #2AAA2E",
"R  c #27A62A",
"E  c #24B22C",
"W  c #28B22F",
"Q  c #2EAE31",
"!  c #36A534",
"~  c #37A935",
"^  c #29B731",
"/  c #2DBC35",
"(  c #32B335",
")  c #31B936",
"_  c #36BF3D",
"`  c #458738",
"'  c #429735",
"]  c #4AA63E",
"[  c #48A83D",
"{  c #5BA63C",
"}  c #729147",
"|  c #4EAB42",
" . c #4CA741",
".. c #51AD45",
"X. c #5BA94A",
"o. c #66A94F",
"O. c #7EA44F",
"+. c #66AC51",
"@. c #73B25B",
"#. c #78B35E",
"$. c #48C24B",
"%. c #6CCA6D",
"&. c #AD805F",
"*. c #A88069",
"=. c #BB8D71",
"-. c #82B164",
";. c #92B669",
":. c #96B770",
">. c #A7BE7D",
",. c #ACBD7D",
"<. c #D7997A",
"1. c #D1A179",
"2. c #C8A47E",
"3. c #8EC978",
"4. c #7CB5D4",
"5. c #71B5D9",
"6. c #63ADD6",
"7. c #ADBF81",
"8. c #C8A889",
"9. c #D9BC8F",
"0. c #D5B68B",
"q. c #DABE94",
"w. c #D4BA96",
"e. c #CABA9C",
"r. c #EFBD9C",
"t. c #D3BDA1",
"y. c #C3BBA4",
"u. c #8ACF86",
"i. c #BCC38A",
"p. c #A5DAA1",
"a. c #DCC296",
"s. c #D6C09E",
"d. c #DDC39B",
"f. c #D2C999",
"g. c #DDCB9E",
"h. c #D7C294",
"j. c #C8C793",
"k. c #E1C69C",
"l. c #E2C99E",
"z. c #E3C997",
"x. c #DAC4A3",
"c. c #DDC9A8",
"v. c #D7C9A6",
"b. c #DED2AA",
"n. c #DDCDB9",
"m. c #E1C7A0",
"M. c #E6CCA3",
"N. c #E8CEA6",
"B. c #E2CDAC",
"V. c #E8CFA8",
"C. c #E5D0A7",
"Z. c #EBD1A6",
"A. c #ECD3AC",
"S. c #E7D1A8",
"D. c #E2CFB1",
"F. c #E4D3B5",
"G. c #E5D5BB",
"H. c #EAD9B6",
"J. c #89BAD4",
"K. c #82BFDD",
"L. c #94BED1",
"P. c #87C3DA",
"I. c #A1C9DC",
"U. c #A9D0DD",
"Y. c #BFD7DF",
"T. c #9ACDE8",
"R. c #8BC8EA",
"E. c #A8D6E8",
"W. c #BCDAE4",
"Q. c #CFD9D6",
"!. c #C2D7DC",
"~. c #C3D8DE",
"^. c #CAD8D7",
"/. c #D3DCDA",
"(. c #D1DAD7",
"). c #EADBC3",
"_. c #EADECB",
"`. c #E7DCC6",
"'. c #DDE8DA",
"]. c #F3E4CC",
"[. c #EBE5DA",
"{. c #F3E7D4",
"}. c #F4EBDE",
"|. c #C2D9E1",
" X c #CADDE3",
".X c #CDE2E8",
"XX c #D5E2E4",
"oX c #D4E5EB",
"OX c #DFEBEA",
"+X c #ECEBE2",
"@X c #ECF1ED",
"#X c #FBF9F5",
/* pixels */
"L.I.W.|.|.|.!.!.!.!.!.!.Y.!.W.!.!.!.!.!.!.!.!.!.!.!.!.!.|.W.J.J.",
"4.T.@X).).).B.B.B.b.B.B.x.x.G.B.B.B.B.B.B.F.G.B.B.B.B.G.[.+XR.6.",
"E.'.m.M.M.M.M.M.Z.Z.Z.Z.z.l.M.M.M.N.M.N.N.N.N.N.M.M.M.k.9.w.^.T.",
"~.}.B.A.r.m.A.A.A.A.Z.A.Z.A.A.A.A.A.A.A.A.A.A.A.A.l.k.M.l.9.G.XX",
"~.n.a.Z.B.A.Z.A.A.A.A.A.A.A.A.A.A.A.A.A.A.A.A.A.A.A.V.A.A.z.w./.",
"!.x.l.M.C.M.a.M.A.A.A.A.A.A.A.A.A.A.A.A.A.A.A.A.V.A.A.M.l.9.y. X",
"!.B.N.A.Z.a.M.g.C.A.A.A.A.A.A.A.A.7.>.Z.b.f.A.A.k.M.A.A.V.k.e. X",
"!.B.M.A.A.N.B.-.X.#.-.#.#.-.#.#.@.! Q @...~ @.#.,.q.V.A.A.N.a./.",
"!.B.N.A.A.A.S.p.p.%.^ ^ / ^ ^ ^ W ^ Y E / ^ E E [ f.A.A.A.Z.c./.",
"|._.N.A.A.M.G.#X#X'.$./ / / / / Y E G S Y E P E | M.A.A.A.A.l./.",
"!.G.l.A.].H.A.H.].].3._ / / / / P Y U C L Y L E ..S.A.A.A.N.G.XX",
"!.x.z.Z.{.{.A.H.z.C.F.u._ / / / W L Y D Y D F W ..S.A.A.A.A.V.XX",
"!.c.8.1.].}.M.F.0.2.2.&.{ ) / ) G C D L L D + S ..S.A.A.A.Z.m./.",
"!.c.M y 8.r.w.1.&.h g z k ' ( ( A Z E D D W L P ..S.A.A.A.A.m./.",
"!.t.k 7 h m h l z s e * & @ @ : ^ P L Z C L E Y ..B.A.A.A.N.m./.",
"!.e.i s h n y n l z w d = @ . @ ! L Y W A U U E ..C.A.A.A.A.m./.",
"|.t.< a l s k * q g &.r.;.H     : ^ ( ) / K # J ..S.A.A.A.Z.m./.",
"|.D.j a l = N i e u <.<.-.W     - - > ) / > , -  .B.A.A.A.A.m./.",
"|.t.< p s r r y y V z v } J   % ` 2 $ ! / ! J K T >.A.A.A.l.G.oX",
"|.t.j O p w 8 8 s x 8 3 3 X & [ ) ` : $ > W P / P +.Z.A.A.Z.x./.",
"~.B.w.p w w 0 3 1 7 q < & & ' / / / J 2 ; ( / / ~ i.A.A.A.Z.m./.",
"!.B.w.= 9 y a , o . = ; ~ ( / / / / Q K ! / / ^ ..A.A.A.A.A.k./.",
"!.B.M.j O e q % > K K ( / / / / / / / / ) / / / ..B.A.A.A.V.a.(.",
"!.B.M.8.M M 3 ' ^ / / / / / / / / / / / / / W I | Z.A.A.A.Z.m./.",
"!.B.V.A.A.i.o.U | ..] [ ] ..] ..............] ] :.m.A.A.A.A.m./.",
"!.B.M.A.A.j.:.X.f.B.l.a.h.d.g.Z.C.C.C.C.C.C.B.B.l.z.A.A.A.V.m./.",
"!.x.d.A.A.A.Z.f.S.A.A.A.A.A.A.A.A.A.A.A.A.A.A.A.V.V.A.A.A.A.m./.",
"Y.t.q.A.A.A.A.A.A.A.A.A.A.A.A.A.A.A.A.A.A.A.A.A.A.A.A.A.A.V.m./.",
"|.[.d.Z.A.A.A.A.A.A.A.A.A.A.A.A.A.A.A.A.A.A.A.A.A.A.A.A.A.M.m./.",
"U.OXB.M.Z.m.M.A.Z.N.M.Z.V.M.Z.Z.A.Z.Z.Z.M.V.Z.A.Z.Z.B.z.l.q.G.XX",
"J.E.+X_.).D.F.l.x.l.q.G.B.w.d.m.m.x.B.F.d.m.m.m.m.m.s.x._._.W.P.",
"J.5.W.oX.XXXXX/./.(.Q.XX/.Q./././././.XX/./././././././.|.oX4.4."
};
