/* XPM */
static char *result[] = {
/* columns rows colors chars-per-pixel */
"32 32 186 2 ",
"   c #4B1615",
".  c #6B2B1E",
"X  c #64241D",
"o  c #41182B",
"O  c #531B28",
"+  c #481F36",
"@  c #5B1F35",
"#  c #4B2625",
"$  c #4F2928",
"%  c #5D2E2B",
"&  c #532729",
"*  c #5E312D",
"=  c #5E2235",
"-  c #543231",
";  c #6F2E27",
":  c #642829",
">  c #702F23",
",  c #60332F",
"<  c #723224",
"1  c #7D3820",
"2  c #7E3B29",
"3  c #763628",
"4  c #63283D",
"5  c #6F273B",
"6  c #732B3D",
"7  c #6A3636",
"8  c #743336",
"9  c #714234",
"0  c #79453A",
"q  c #6D4D49",
"w  c #734F49",
"e  c #6B524E",
"r  c #74534D",
"t  c #756560",
"y  c #823A2B",
"u  c #8E3823",
"i  c #843B30",
"p  c #8A3D35",
"a  c #86393E",
"s  c #903E37",
"d  c #993E3E",
"f  c #874129",
"g  c #8A442C",
"h  c #8F482F",
"j  c #90492F",
"k  c #90472D",
"l  c #834434",
"z  c #8F4532",
"x  c #8E4937",
"c  c #924636",
"v  c #944C34",
"b  c #984D36",
"n  c #95463B",
"m  c #9A453C",
"M  c #9C4C3B",
"N  c #974A3A",
"B  c #9B5335",
"V  c #9B5339",
"C  c #935239",
"Z  c #A44D3C",
"A  c #A1593E",
"S  c #873742",
"D  c #843B46",
"F  c #8B3B45",
"G  c #973D40",
"H  c #8C4D42",
"J  c #924247",
"K  c #9C4641",
"L  c #9D5343",
"P  c #965A46",
"I  c #9E514B",
"U  c #855958",
"Y  c #AF5143",
"T  c #A55B42",
"R  c #A95C43",
"E  c #A75145",
"W  c #B65B45",
"Q  c #9A604A",
"!  c #9B6655",
"~  c #AB6347",
"^  c #AC654A",
"/  c #A56248",
"(  c #B3654A",
")  c #B26A4C",
"_  c #BA6A4C",
"`  c #B16547",
"'  c #A36850",
"]  c #B26C52",
"[  c #B96C50",
"{  c #B67154",
"}  c #BB7454",
"|  c #B4715A",
" . c #BE7854",
".. c #88736B",
"X. c #99776B",
"o. c #8E7270",
"O. c #957A76",
"+. c #B97C68",
"@. c #CD5E49",
"#. c #C4644C",
"$. c #C56B4C",
"%. c #C96F4C",
"&. c #C36D45",
"*. c #CF714E",
"=. c #D7734B",
"-. c #DC7241",
";. c #C47653",
":. c #CF7551",
">. c #C37A5B",
",. c #C67951",
"<. c #D07955",
"1. c #C17E60",
"2. c #928078",
"3. c #AF8764",
"4. c #F29743",
"5. c #E58A5E",
"6. c #C98161",
"7. c #CF8C68",
"8. c #CD8769",
"9. c #D28764",
"0. c #D49369",
"q. c #C69A74",
"w. c #DF9A70",
"e. c #DB9C79",
"r. c #E59E78",
"t. c #E19A73",
"y. c #CBA77B",
"u. c #D3AE7E",
"i. c #EBA76B",
"p. c #F1AF66",
"a. c #E1A17A",
"s. c #F3AA71",
"d. c #F4BA79",
"f. c #FBC06B",
"g. c #5E738E",
"h. c #5D7E98",
"j. c #749A97",
"k. c #D0AE81",
"l. c #D6B485",
"z. c #D8B786",
"x. c #D7B689",
"c. c #DBBB89",
"v. c #DABA86",
"b. c #DCBD91",
"n. c #E8A886",
"m. c #E5A787",
"M. c #EDB290",
"N. c #F0B996",
"B. c #D6BFAA",
"V. c #DDC495",
"C. c #E3C486",
"Z. c #E4C58C",
"A. c #E7C88F",
"S. c #E0C394",
"D. c #E7CB94",
"F. c #E9CD9A",
"G. c #E4C999",
"H. c #E5CDA4",
"J. c #F9C4A0",
"K. c #EAD3A6",
"L. c #ECD5AB",
"P. c #E1CDB2",
"I. c #F7C8B0",
"U. c #E7D6BE",
"Y. c #EEDCBA",
"T. c #EDD9B2",
"R. c #FFD7B9",
"E. c #FFDABF",
"W. c #DDD1C6",
"Q. c #DDCDD1",
"!. c #EBDBC4",
"~. c #E9DDCB",
"^. c #F0DFC2",
"/. c #FFDDC9",
"(. c #EFE3CE",
"). c #F1E4CB",
"_. c #F8E1C2",
"`. c #F3EADC",
"'. c #F3E8D6",
"]. c #F4EDE2",
"[. c #F9F5ED",
"{. c #F7F1E9",
"}. c #FAF7F2",
"|. c #FCFAF6",
" X c #FDFCFA",
".X c None",
/* pixels */
".X.X.X.X.X.X.X.X.X.X.X.X.X.X.X.X.X.X.X.X.X.X.X.X.X.X.X.X.X.X.X.X",
".X.X.X.X.X.X.X.X.X.X.X.X}.|. X X}..X.X.X.X.X.X.X.X.X.X.X.X.X.X.X",
".X.X.X.X.X.X.X.X.X.X).}.}. X X X|.U..X.X.X.X.X.X.X.X.X.X.X.X.X.X",
".X.X.X.X.X.X.X.X.XZ.Y.). X|.}.|.|.|..X.X.X.X.X.X.X.X.X.X.X.X.X.X",
".X.X.X.X.X.X.X.X.XZ.F.Y._.).`.|.{.[.!..X.X.X.X.X.X.X.X.X.X.X.X.X",
".X.X.X.X.X.X X|.|.H.L.D.L.T.Y.Y.K.'.A..X.X.X.X.X.X.X.X.X.X.X.X.X",
".X.X.X.X.XL.}.|.`.L.Y.F.C.C.C.C.C.A.c.Q.]..X.X.X.X.X.X.X.X.X.X.X",
".X.X.X.XC.A.H.(.'.].Y.D.}.}.V.v.!.`.c.|.|..X.X.X.X.X.X.X.X.X.X.X",
".X.X.X.X.XD.A.}.}.}.^.x.'.{.F.z.z.z.l.`.B.! .X.X.X.X.X.X.X.X.X.X",
".X.X.X, d.u ~.[.[.].u.u.H.G.u.l.l.l.X 8 -.Y =..X.X.X.X.X.X.X.X.X",
".X.X.X, y p.C.{.M.l.S.(.k.k.k.: o I ` %.:.s.*..X.X.X.X.X.X.X.X.X",
".X.X.X, s y   P.l.l.H.b.I.%.%.u.d.@ _ :.*.i U 9 9 .X.X.X.X.X.X.X",
".X.X.X, d c ~ 3.x.9 y.  B / T } ,.= 4.a r O.9 9 9 * , , , .X.X.X",
".X.X, , M c T P l.< B ~ ) ` 6.~ ~ 6 Z % * % 9 9 * 7 , , , .X.X.X",
".X.X, | d n x P l.v k ) B >.v b ^ J Z p 9 , 9 , , , , , , , .X.X",
".X.X, , ] v L P l.0 B {  .y.D i.w.&.Z p )  .5., , , , , , , .X.X",
".X.X, , * | L / ^ A ,.0., , 5 ) [ ) V _ /.J.d..X.X, , , , , , .X",
".X.X, 6 O +.P q.l ( , , , , , J v b B N._.m.E..X.X.X, , , , , .X",
".X.X,  XO & 8.H : * |.|., , , F N b a./.R.n.>..X.X.X, , , , , .X",
".X.X, K K 0 M.g . , , , , $.} V v v 7.6._ >.>..X.X.X, , , , , .X",
".X.X, 8 n 7.| T k #.@.#. .) g v r.v ;.>.1.>.9..X.X.X, , , , .X.X",
".X.X, L ; & ] 1 R ~ f y g v v v r.t.} R A [ 3 .X.X, , , , .X.X.X",
".X.X, , M + 6.4 W j j A j > f 2 <.=.k V : 2.W., , , , 9 9 .X.X.X",
".X.X.X, * ] % 4 v g 1 B v v } >.T T a : , r .., , , 9 9 .X.X.X.X",
".X.X.X.X, E ' z g B < y T ) h.l f 2 S S D j., , , 9 9 .X.X.X.X.X",
".X.X.X.X, > V f b B i G g.# # - p z Z v p 9 9 9 9 9 .X.X.X.X.X.X",
".X.X.X.X, ; C 2 T ` y o.# q r $ # 3 v ) , 9 .X.X.X.X.X.X.X.X.X.X",
".X.X.X.X, 8 N 2 V } y X.- t e q , , , , , .X.X.X.X.X.X.X.X.X.X.X",
".X.X.X.X, , E ; b } y ,., , , , , .X.X9 .X.X.X.X.X.X.X.X.X.X.X.X",
".X.X.X.X.X, U . c ) S , , .X.X.X.X.X.X.X.X.X.X.X.X.X.X.X.X.X.X.X",
".X.X.X.X.X, % * , , , , .X.X.X.X.X.X.X.X.X.X.X.X.X.X.X.X.X.X.X.X",
".X.X.X.X.X.X.X.X.X.X9 .X9 .X.X.X.X.X.X.X.X.X.X.X.X.X.X.X.X.X.X.X"
};
