/* XPM */
static char *result[] = {
/* columns rows colors chars-per-pixel */
"32 32 144 2 ",
"   c #08790F",
".  c #4F5D36",
"X  c #575B3A",
"o  c #4C6636",
"O  c #536339",
"+  c #497737",
"@  c #427F34",
"#  c #497738",
"$  c #497838",
"%  c #6A4E41",
"&  c #685141",
"*  c #0B8211",
"=  c #0F8B16",
"-  c #108C17",
";  c #128519",
":  c #148B1B",
">  c #15951C",
",  c #159C1C",
"<  c #189E1F",
"1  c #1C9A23",
"2  c #3C8532",
"3  c #3F8F36",
"4  c #359B32",
"5  c #3C9836",
"6  c #1BA322",
"7  c #1FAB26",
"8  c #1EAF28",
"9  c #22A427",
"0  c #20AB27",
"q  c #2BA52C",
"w  c #23AD2A",
"e  c #2AAA2E",
"r  c #24B22C",
"t  c #29B32F",
"y  c #2EAE31",
"u  c #37A535",
"i  c #39A436",
"p  c #35AD35",
"a  c #29B730",
"s  c #2EBD35",
"d  c #32B436",
"f  c #31B936",
"g  c #498039",
"h  c #438D38",
"j  c #409237",
"k  c #4AA63E",
"l  c #44A83C",
"z  c #4CA83E",
"x  c #4CA741",
"c  c #4EAB42",
"v  c #51AD45",
"b  c #5BA94A",
"n  c #64AC4F",
"m  c #66AC51",
"M  c #6EB057",
"N  c #73B25B",
"B  c #78B35E",
"V  c #83B264",
"C  c #91B76E",
"Z  c #96B770",
"A  c #9EBA77",
"S  c #A7BE7D",
"D  c #ACBD7D",
"F  c #63ADD6",
"G  c #7CB5D4",
"H  c #71B5D9",
"J  c #ADBF81",
"K  c #D9BC8F",
"L  c #CABA9C",
"P  c #D5BB93",
"I  c #DABE93",
"U  c #C3BBA4",
"Y  c #B3C085",
"T  c #B8C187",
"R  c #BDC48C",
"E  c #C8C793",
"W  c #CEC997",
"Q  c #CFC998",
"!  c #D7C294",
"~  c #DCC296",
"^  c #D6C09E",
"/  c #DDC39B",
"(  c #D1C999",
")  c #DBCA9E",
"_  c #E1C69C",
"`  c #E2C99E",
"'  c #DAC4A3",
"]  c #DDCEA2",
"[  c #D0C3AA",
"{  c #DEC9A8",
"}  c #DECFB8",
"|  c #E1C7A0",
" . c #E6CCA3",
".. c #E8CEA6",
"X. c #E2CDAC",
"o. c #E8CFA8",
"O. c #E5D0A7",
"+. c #EAD0A7",
"@. c #E7D1A8",
"#. c #ECD3AC",
"$. c #E3CFB1",
"%. c #E5D2B4",
"&. c #E5D5BB",
"*. c #E9D6B8",
"=. c #89BAD4",
"-. c #82BFDD",
";. c #94BED1",
":. c #87C0D5",
">. c #87C5DE",
",. c #A1C9DC",
"<. c #A9D0DD",
"1. c #BFD7DF",
"2. c #8BC8EA",
"3. c #9CCDE2",
"4. c #97CCED",
"5. c #AFD3E0",
"6. c #A1D8EF",
"7. c #B9D7E2",
"8. c #BDDAE3",
"9. c #BCDDE9",
"0. c #C7D4D0",
"q. c #CFD9D6",
"w. c #C2D7DC",
"e. c #C3D8DE",
"r. c #CCDBDD",
"t. c #D1DAD7",
"y. c #D3DCDA",
"u. c #E7DCC6",
"i. c #E9DBC3",
"p. c #EADECB",
"a. c #DDE4DF",
"s. c #EDE1CE",
"d. c #ECE5D7",
"f. c #E7E3D9",
"g. c #EEE8DD",
"h. c #C2D9E1",
"j. c #CADDE3",
"k. c #CDE1E7",
"l. c #CDE3E9",
"z. c #D5E2E4",
"x. c #D4E5EB",
"c. c #DFEBEA",
"v. c #ECEBE2",
"b. c #ECF1ED",
/* pixels */
";.,.7.h.e.e.w.w.e.e.e.e.e.1.8.w.w.e.w.w.w.1.1.w.w.w.w.e.8.1.=.=.",
"G 4.b.u.i.u.X.X.X.O.X.{ ' ' &.X.X.X.X.X.X.%.&.X.X.X.X.&.d.v.2.F ",
"5.a.|  . . . . . . .+.+._ _  . . ... . . .+.+.+. . . ._ I P 0.3.",
"h.g.o.#._  .#.#.#.#.#.#.#.#.#.#.#.#.#.#.#.#.#.#.#./ _ +.` ! &.x.",
"h.%.~ o. .#.#.#.#.#.#.#.#.#.#.#.#.#.#.#.#.#.#.#.#.#.o.#.#._ I y.",
"1.' `  .o. ._  .#.#.#.#.#.#.#.#.#.#.#.#.#.#.#.#...#.#.o.` K U j.",
"w.X. .#.+.~ ` ) O.#.#.#.*.#.#.#.#.J S #.O.( #.#._ ` #.#.#.~ L j.",
"w.X...#.#... .V b B V B B B B B B q p M v i N B D I o.#.#.o.I t.",
"w.X. .#.#.#.] v a a a a f s s s a a w r s a r r l ( #.#.#.+.| y.",
"h.p. .#.#.] M a s s s s s s s s 0 r 1 ; w r 7 r c o.#.#.#.#.| y.",
"h.&. .#.#.O.n r s s s s s s s s 7 0 7   1 r 6 t v O.#.#.#.o.*.x.",
"w.I _ #.#.#.Y y s s s s s s s s a 6 r < 7 , > a v O.#.#.#.o.#.z.",
"w.{ | #.#.#.( p s s s s s s s s 1 * < 6 6 ,   : v O.#.#.#.+.| y.",
"w.{  .#.#.#.Q p s s s s f f s f : - 0 < , a 6 6 v O.#.#.#.+.| y.",
"w.{ | #.#.#.) p s s s s s s s s s 7 6 = * 6 r r v O.#.#.#.+.| y.",
"w.X. .#.#.#.Q p s s s s s s s s a 6 8 t : 9 6 t v O.#.#.#.#.| y.",
"h.@. .#.#.#.W p s s s s s s s s s a d s s 5 . 2 v o.#.#.#.+.| y.",
"h.s.+.#.#.+.S e s s s s s s s s i O $ d s @ % o x { #.#.#.#. .y.",
"e.$. ._ #.O.V e s s s s s s s s j & X u s p g u e S #.#.#.` %.x.",
"e.X. .I O.#.W p s s r s s s s s d h $ X + r 7 a 7 n #.#.#. .' y.",
"e.X. .o.+.#.W p s f w r s s s s s s 2 & o d s s u E #.#.#.+.` y.",
"e.X. .#.+.#.W p s s s s s s s s s s y 3 i s s a c +.#.#.#.#._ y.",
"e.X. .#.#.#.W p s s s s s s s f s s s s s s s s v O.#.#.#...~ y.",
"e.X...#.#.#.R t a s s s a s s a s s s a s a r 8 c O.#.#.#.o.| y.",
"w.X. .#.#.T m 9 c c x z z x v v v v v v v c x x Z | +.#.#.+.| y.",
"w.X. .#.#.E C b ( +. .! ! / ) O.O.O.O.O.O.O.O.O._ _ #.#.#.#.| y.",
"1.^ _ #.#.#.#.( +.#.#.#.#.#.#.#.#.#.#.#.#.#.#.#.+.+.#.#.#.#.| y.",
"w.[ I #.#.#.#.#.#.#.#.#.#.#.#.#.#.#.#.#.#.#.#.#.#.#.#.#.#.+.| y.",
"h.f.~ ..#.#.#.#.#.#.#.#.#.#.#.#.#.#.#.#.#.#.#.#.#.#.#.#.#. .| y.",
"<.c.o.....`  .#.o... .o... ...#.#.#.#.O.| +.#.+.+.+..._ | ~ &.l.",
"=.6.v.u.i.$.#.| | ' I &. .P ) _ | _  .} / | | | | | ~ ' p.i.8.>.",
"=.H 9.x.l.z.z.y.y.y.y.j.y.q.y.y.y.y.r.x.y.y.y.y.y.y.y.r.e.k.-.G "
};
