/* XPM */
static char *result[] = {
/* columns rows colors chars-per-pixel */
"32 32 150 2 ",
"   c #27181E",
".  c #181425",
"X  c #3E2731",
"o  c #512B27",
"O  c #733E39",
"+  c #08790F",
"@  c #4F5D36",
"#  c #575B3A",
"$  c #4C6636",
"%  c #536339",
"&  c #497737",
"*  c #497738",
"=  c #497838",
"-  c #427F34",
";  c #3A4466",
":  c #6A4E41",
">  c #685141",
",  c #FF0044",
"<  c #B86F50",
"1  c #D77643",
"2  c #0B8211",
"3  c #0F8B16",
"4  c #108C17",
"5  c #148B1B",
"6  c #128519",
"7  c #159C1C",
"8  c #189E1F",
"9  c #15951C",
"0  c #1C9A23",
"q  c #3C8532",
"w  c #3F8F36",
"e  c #399A34",
"r  c #1BA322",
"t  c #1FAB26",
"y  c #1EAF28",
"u  c #21A126",
"i  c #20AB27",
"p  c #23AD2A",
"a  c #2BAA2E",
"s  c #2DA22D",
"d  c #24B22C",
"f  c #29B32F",
"g  c #2EAE31",
"h  c #37A535",
"j  c #39A436",
"k  c #35AC35",
"l  c #29B731",
"z  c #2EBD35",
"x  c #32B436",
"c  c #31B936",
"v  c #498039",
"b  c #438D38",
"n  c #409237",
"m  c #4AA63F",
"M  c #48A83D",
"N  c #4CA741",
"B  c #4EAA43",
"V  c #51AD45",
"C  c #5BA94A",
"Z  c #61AE4F",
"A  c #66AC51",
"S  c #6EB057",
"D  c #73B25B",
"F  c #78B35E",
"G  c #82B164",
"H  c #96B770",
"J  c #A7BE7D",
"K  c #ACBD7D",
"L  c #E4A672",
"P  c #FEE761",
"I  c #5A6988",
"U  c #63ADD6",
"Y  c #7CB5D4",
"T  c #71B5D9",
"R  c #ADBF81",
"E  c #8B9BB4",
"W  c #D9BC8F",
"Q  c #CABA9C",
"!  c #DABE93",
"~  c #D4BB93",
"^  c #E8B796",
"/  c #C3BBA4",
"(  c #B9C289",
")  c #CFC998",
"_  c #DDC297",
"`  c #D6C09E",
"'  c #DDC39B",
"]  c #D2C999",
"[  c #DACC9F",
"{  c #D7C294",
"}  c #E1C69C",
"|  c #E2C99E",
" . c #DAC4A3",
".. c #DDCEA2",
"X. c #DEC9A8",
"o. c #D0C3AA",
"O. c #DECFB8",
"+. c #E1C7A0",
"@. c #E6CCA3",
"#. c #E8CEA6",
"$. c #E2CDAC",
"%. c #E8CFA8",
"&. c #E5D0A7",
"*. c #EAD0A7",
"=. c #E7D1A8",
"-. c #ECD3AC",
";. c #E3CFB1",
":. c #E5D2B4",
">. c #E5D5BB",
",. c #E9D6B8",
"<. c #89BAD4",
"1. c #82BFDD",
"2. c #94BED1",
"3. c #87C0D5",
"4. c #87C5DE",
"5. c #A1C9DC",
"6. c #A9D0DD",
"7. c #BFD7DF",
"8. c #8BC8EA",
"9. c #97CCED",
"0. c #9CCDE2",
"q. c #AFD3E0",
"w. c #A1D8EF",
"e. c #B9D7E2",
"r. c #BDDAE3",
"t. c #BCDDE9",
"y. c #C7D4D0",
"u. c #CFD9D6",
"i. c #C2D7DC",
"p. c #C3D8DE",
"a. c #CCDBDD",
"s. c #D1DAD7",
"d. c #D3DCDA",
"f. c #E7DCC6",
"g. c #E9DBC3",
"h. c #EADECB",
"j. c #DDE4DF",
"k. c #EDE1CE",
"l. c #ECE5D7",
"z. c #E7E3D9",
"x. c #EEE8DD",
"c. c #C2D9E1",
"v. c #CADDE3",
"b. c #CDE1E7",
"n. c #CDE3E9",
"m. c #D5E2E4",
"M. c #D4E5EB",
"N. c #DFEBEA",
"B. c #ECEBE2",
"V. c #ECF1ED",
/* pixels */
"2.5.e.c.p.p.i.i.i.i.i.i.i.i.r.i.i.p.i.i.i.p.7.i.i.i.i.p.c.r.<.<.",
"Y 9.V.f.g.f.$.$.$.$.$.$. .X.>.$.$.$.$.$.$.:.>.$.$.$.$.>.l.B.8.U ",
"q.j.+.@.@.@.@.#.#.#.#.*.' } @.#.@.#.@.@.#.#.%.*.@.@.@.} { ~ y.0.",
"c.x.%.-.} | -.-.-.-.-.-.-.-.*.-.-.-.-.-.-.-.-.-.-.' } #.| ! >.M.",
"p.O._ #.#.-.%.-.-.-.-.-.-.-.-.-.-.-.-.-.-.-.-.-.-.-.%.-.-.} ! d.",
"p. .| #.%.@.} #.-.-.-.-.-.-.-.-.-.-.-.-.-.-.-.-.#.-.-.#.| W / v.",
"i.$.@.-.*._ | ' @.-.-.-.,.-.-.-.-.( J -...[ -.-.| | -.-.%.} / a.",
"p.$.#.-.-.#.&.G Z F F F F G F F D s a D V k D D K ! %.-.-.%.! s.",
"7.$.@.-.-.-...V l l l l c z z l l l p d l l l d M ) -.-.-.-.+.d.",
"p.f.#.-.-...S l z z z z z z z z i d 0 6 d d y d V #.-.-.-.*.+.d.",
"i.>.@.-.-.&.Z d z z z c z z z z i i t + r i r f V &.-.-.-.-.,.m.",
"i.` } -.*.-.( a z z z z z z z z l r d 8 i 7 9 d V &.-.-.-.-.$.m.",
"i.X.| -.-.-.] k z z z z z z z z 0 2 7 r r 7 + 5 V &.-.-.-.*.} d.",
"i.X.@.-.P P P P z z z z z z z z 5 5 d 8 7 l r u V &.-.-.-.*.+.d.",
"i.X.P , P P P P P z z z z z z z l t r 3 + r d d V &.-.-.-.*.+.d.",
"i.$.@.P ^ ^ ^ ^ ^ z z z z z z z z t i p 5 i u d V &.-.-.-.-.+.d.",
"c.=.*.-.^ ^ . ^ . z z z z z z z z g z z z e @ q V &.-.-.-.-...d.",
"c.k.&.-.P ^ ^ ^ ^ z z c z z z z h % & c z = : $ N @.-.-.-.*.+.d.",
"p.:.@.' P P P P P z z z z z z z w > # h c k - s a J -.-.-.+.>.M.",
"p.$.| < < O P P P O i z z z z z c b * # & d y z t A -.-.-.#.} d.",
"i.$.@.< < < O O O < d f z z z z c z q > % c z z j ( -.-.-.-.} d.",
"i.$.#.< < < < O < < z z z z z z z z p w j z z l V *.-.-.-.%.} d.",
"p.$.1 ^ ^ 1 1 1 1 1 1 ^ ^ ; E z z z z z z z c z V =.-.-.-.%.' d.",
"i.$.@.^ ^ E E E L L z ^ ^ z I z z l z z z l f y V &.-.-.-.%.} d.",
"i.$.< O O O O O O O B I I I I V V V V V V V N N H +.-.-.-.-.+.d.",
"i.$.O O X X X     O +._ I I I &.&.&.&.&.&.&.&.&.} } -.-.-.*.+.d.",
"7.` } X o -.*.]     -.-.-.-.-.-.-.-.-.-.-.-.-.-.#.*.-.-.-.*.+.d.",
"7.o.! X X -.-.-.    -.-.-.-.-.-.-.-.-.-.-.-.-.-.-.-.-.-.-.*.+.d.",
"c.z._ O O O -.-.o o o -.-.-.-.-.-.-.-.-.-.-.-.-.-.-.-.-.-.#.} d.",
"6.N.$.#.$.+.#.*.*.%.@.%.%.@.*.*.*.-.-.&.@.%.*.*.*.*.%.' +._ >.n.",
"3.w.B.f.g.;.:.' +.' ! ,.$.~ } } }  .@.>. .} +.+.+.+._  .h.f.r.4.",
"<.T t.M.n.m.m.d.d.d.u.b.d.u.d.d.d.d.d.n.d.d.d.d.d.d.d.d.p.b.1.Y "
};
