/* XPM */
static char *result[] = {
/* columns rows colors chars-per-pixel */
"32 32 215 2 ",
"   c #1D1209",
".  c #1A1007",
"X  c #13181F",
"o  c #231D1A",
"O  c #2A190B",
"+  c #292318",
"@  c #3A2210",
"#  c #3A2819",
"$  c #3D3614",
"%  c #1D1E25",
"&  c #183A23",
"*  c #2C2826",
"=  c #3D2C26",
"-  c #382F2A",
";  c #37362A",
":  c #2B333A",
">  c #2C3C3A",
",  c #363636",
"<  c #4A2913",
"1  c #4C2D18",
"2  c #442713",
"3  c #522D14",
"4  c #48331A",
"5  c #5B3216",
"6  c #56341C",
"7  c #673B1C",
"8  c #412E25",
"9  c #422F28",
"0  c #433027",
"q  c #45332A",
"w  c #49392C",
"e  c #533A27",
"r  c #433E3B",
"t  c #4E3A30",
"y  c #533F35",
"u  c #653F24",
"i  c #1C421C",
"p  c #395E1F",
"a  c #0F7B16",
"s  c #1E5728",
"d  c #395F20",
"f  c #254F24",
"g  c #1D7722",
"h  c #276627",
"j  c #3F6020",
"k  c #277B29",
"l  c #3C7424",
"z  c #51401F",
"x  c #5D422C",
"c  c #4F4131",
"v  c #5C4236",
"b  c #544238",
"n  c #574436",
"m  c #545B38",
"M  c #654B33",
"N  c #674E39",
"B  c #76583E",
"V  c #734D2D",
"C  c #536339",
"Z  c #477937",
"A  c #49672C",
"S  c #444547",
"D  c #57534F",
"F  c #685141",
"G  c #655547",
"H  c #70594A",
"J  c #457146",
"K  c #776346",
"L  c #7F705D",
"P  c #76765A",
"I  c #4A4F79",
"U  c #756D65",
"Y  c #726761",
"T  c #6E7070",
"R  c #726D6B",
"E  c #BF5410",
"W  c #AF561E",
"Q  c #815D37",
"!  c #BC672F",
"~  c #D05E15",
"^  c #C37139",
"/  c #C96827",
"(  c #88765A",
")  c #937154",
"_  c #8E6946",
"`  c #A67F5F",
"'  c #8A7A63",
"]  c #997C63",
"[  c #8B7E72",
"{  c #A67F61",
"}  c #0C8413",
"|  c #13881A",
" . c #159C1D",
".. c #3D8833",
"X. c #3B9B33",
"o. c #2F9132",
"O. c #1BA322",
"+. c #1EAC26",
"@. c #1EAF28",
"#. c #23AC2A",
"$. c #27A72B",
"%. c #24B22C",
"&. c #28B12E",
"*. c #2DAD32",
"=. c #2AA232",
"-. c #39A436",
";. c #36A735",
":. c #2CB434",
">. c #2DBC35",
",. c #31B636",
"<. c #468739",
"1. c #409237",
"2. c #4AA63E",
"3. c #44A83C",
"4. c #5C8C4E",
"5. c #6B8C44",
"6. c #708D4F",
"7. c #4DA942",
"8. c #51AD45",
"9. c #73B25B",
"0. c #66AC51",
"q. c #7FAD6C",
"w. c #B0895F",
"e. c #83A35A",
"r. c #9E896F",
"t. c #8C8068",
"y. c #A48B6C",
"u. c #AB8E67",
"i. c #A79273",
"p. c #A9977D",
"a. c #B2906B",
"s. c #9CA877",
"d. c #92AD6C",
"f. c #A8BE7D",
"g. c #AFA87B",
"h. c #CC8757",
"j. c #CB9F7A",
"k. c #D1A47E",
"l. c #6E7395",
"z. c #817E83",
"x. c #78B5D6",
"c. c #63ADD6",
"v. c #928E8F",
"b. c #AD9B83",
"n. c #B29D82",
"m. c #ABA485",
"M. c #B9A486",
"N. c #B5A799",
"B. c #AFAFBD",
"V. c #B7AEAB",
"C. c #C5AB88",
"Z. c #D4AD86",
"A. c #DAB88E",
"S. c #C9B698",
"D. c #DABE94",
"F. c #D5BA98",
"G. c #E4BC95",
"H. c #C3BBA4",
"J. c #B9C288",
"K. c #CEC997",
"L. c #CFC998",
"P. c #DDC39C",
"I. c #D1C999",
"U. c #D9C199",
"Y. c #E1C69C",
"T. c #E2C99E",
"R. c #E9C19C",
"E. c #F3C79D",
"W. c #DAC5A3",
"Q. c #DECAA5",
"!. c #DECAAA",
"~. c #D0C3AC",
"^. c #D5C8B9",
"/. c #E1C7A0",
"(. c #E5CCA3",
"). c #E9CEA6",
"_. c #E2CDAC",
"`. c #E7CAA7",
"'. c #E5D0A7",
"]. c #ECD3AC",
"[. c #E7D1A8",
"{. c #E3CFB0",
"}. c #E4D3B6",
"|. c #E5D6BB",
" X c #E9D6B8",
".X c #89BAD4",
"XX c #82BFDD",
"oX c #94BED1",
"OX c #87C3DA",
"+X c #BFD7DF",
"@X c #A5CDDD",
"#X c #9ACDE8",
"$X c #8BC8EA",
"%X c #A8D6E8",
"&X c #BCDAE4",
"*X c #C2D7DC",
"=X c #C3D8DE",
"-X c #CCD8D6",
";X c #D3DCDA",
":X c #D8D9D6",
">X c #CAC7CF",
",X c #E9DBC4",
"<X c #E7DDC9",
"1X c #DDE4DF",
"2X c #EDE1CE",
"3X c #EBE5DA",
"4X c #C2D9E1",
"5X c #CADDE3",
"6X c #D9DEE5",
"7X c #CDE2E8",
"8X c #D5E2E4",
"9X c #D4E5EB",
"0X c #DDE7E9",
"qX c #E8E7E4",
"wX c #ECF1ED",
/* pixels */
"oX@X&X4X4X*X*X*X4X*X*X4X*X*X&X*X*X*X*X*X*X*X+X*X*X*X*X*X4X+XOX.X",
"x.#XwX,X,X,X_._.b.U R b.W.!.|._._._._._._.].|._._._._.|.3XqX$Xc.",
"%XqX/.(.).).(.P.r , S Y D.Y.(.).).).(.).).).).].'.T.).Y.U.D.-X@X",
"=X3X`.[.P./.]./., I l.l._.].].].].].].[.].].].].].P.T.).T.A.|.7X",
"+X}.U.).).].]./.q ] h.h.`.].].].].].].].].].].].].].[.].[.T.U.-X",
"+XW.T.).[.Q.S.n.u W ~ / `._.C.M.P.].].].].].].].).].].).T.A.H.5X",
"*X_.).].W.v.T - V ! ~ / G.] 9 q G s.J.[.Q.I.]. XY.T.].].[.Y.S.5X",
"*X_.).[.p.S * * 6 a.! ^ { q q y = f :.9.8.;.9.9.f.U.).].].).U.;X",
"*X_.).(.Z.a.' 2 1 Q j.Z.) q q M = f $.%.>.>.%.%.3.I.].].].].T.;X",
"*X~.y.F.G.E.A.V @ 1 _ j.y v q y = o g | #.%.@.%.8.).].].].].T.;X",
"4Xn.1 G p.Y.e.K 8 < u { t y q r c X g } O.+.O.%.8.'.].].].]. X8X",
"*XC.e O L [.J.5.B @ 3 V w v q 9 * o g O.+. . .%.8.[.].].].[.).8X",
"=X_.H b S.].K.5.) 6 2 1 8 y q y = + a O.O. .a | 8.'.].].].].Y.;X",
"*XQ.C./.`.].K.5.M 7 e q 6 = q v = i #. . .&.O.O.8.).].].].[./.;X",
"*X!./.w.Z.].L.A 5 7 Y z.y 8 8 v = h O.| }  .%.%.8.).].].].]./.;X",
"*X_.A.V Z.].L.d 5 7 t S e A ; ; h O.@.%.| $.O.%.8._.].].].]./.;X",
"*X{.P._ a.].I.d 3 7 3 # 7 1.,.:.>.*.:.>.:.X.m ..8.'.].].].].P.;X",
"=X2X[.a.B `.d.$ 2 < < < < d >.>.-.C Z ,.>.<.N C 7.Q.].].].].T.8X",
"=X2X(.u.Q (.6.@ < < 3 < < 4 X.>.1.G m -.,.;.<.o.$.f.].].].T.}.8X",
"8X:X'.y.H N.B < 3 5 5 < 3 3 l >.,.<.Z m Z %.+.>.+.0.].].].).Q.;X",
"qX>XV.v.R S.( q 6 5 7 3 6 3 k ,.>.>...F C ,.>.>.;.K.].].].)./.;X",
"6XB.V.N.F.].m.: , 0 z 4 1 o s ,.>.>.*.1.-.>.>.>.8.].].].].[.Y.;X",
"6XB.!.].].].m.: : > o.| X X X =.>.>.>.>.>.>.>.>.8.(.].].].).P.;X",
"8X!.`.].].].s.: : > :.*.& % , o.>.>.>.>.>.>.%.#.7.'.].].].[.Y.;X",
"=X).).].].J.d.T S J 7.7.4.U [ P 8.8.8.8.8.8.2.2.d.'.].].].].T.;X",
"*X_.).].].g.t.N.H.{._.P.i.D o ( '.'.'.'.[._.).[.P.P.].].].].T.;X",
"+XW.P.].P.M 2 v r.].].].r.    c ].].].].[.].].].[.[.].].].[.T.;X",
"*X~.D.).y.1 1 K /.].].].(.w   ' ].].].].].].].].].].].].].[.T.;X",
"4X3XU._.B < M P.].].].].'.c   p.].].].].].].].].].[.].].].).Y.;X",
"@X0X'.(.M O # M.].[.(.).T.w . # M.[.].[./.).].].[.].].Y.Y.U.|.8X",
"OX%XqX2X' N N i.Y.P.U.|.(.K n c i.W.(.}.P./././././.P.W.<X,X&XOX",
"XXx.&X9X7X8X8X-X;X;X-X7X;X-X;X;X;X;X;X9X;X;X;X;X;X;X-X;X4X7XOXx."
};
