/* XPM */
static char *result[] = {
/* columns rows colors chars-per-pixel */
"32 32 32 1 ",
"  c #002D5B",
". c #183A5F",
"X c #A59DA2",
"o c #B7B1B4",
"O c #05305C",
"+ c #012E5B",
"@ c #736A70",
"# c #857E82",
"$ c #71686E",
"% c #093461",
"& c #847C81",
"* c #12375E",
"= c #A69EA3",
"- c #AEA7AB",
"; c #224964",
": c #7F777B",
"> c #645B61",
", c #898287",
"< c #A1999E",
"1 c #756C72",
"2 c #736C70",
"3 c #6B6268",
"4 c #665D63",
"5 c #A49CA1",
"6 c #867F83",
"7 c #7D757A",
"8 c #645A60",
"9 c #72696F",
"0 c #685F64",
"q c #847D81",
"w c #6D6369",
"e c #675E64",
/* pixels */
"     ....  .. . ......   ....   ",
"       ...  .    .XX...   ....  ",
".      .....     XoXX...  ..    ",
"O+.      . .....X@##$...        ",
"%..         XXXXX&#$$$..        ",
"*....       #=XX-##$$$        ..",
".....;;;... #$$$$##$$$ .......;.",
"..;;;;;....##$$$$##$$$.........;",
"...........##$#####$$$....;;;;;;",
"..........########:$$$.;;;......",
"..........########$$$$>.;;;;;;;.",
";;........#########$$$>.....;;..",
";;;;;....###########$$>...;;;..;",
"....;;;..########XXXX$>....;....",
".....;;;;#######,<1X$$>;....;;;.",
"....;;;..########2#$$3>;;;;.....",
";;;;;...X##########$$4>.........",
";;;....XX5#########$$>>>.......;",
"...;;;;6XX7########$$>>>>.......",
".......###$########$$$>>>.......",
".......###$########$$$$$>>;;;;;.",
";;.....###$########$$$$$$>8;;;;;",
";......############$$$$$$>>...;;",
".......############$$$$$$>>.;;;.",
"......XXXX9########$$$$$$0>>....",
".....##$$$#########$$$$$$$>>....",
".....##$$##########$$$$$$$>>....",
".....###$#########$$$$$$$$>>....",
".....###$########$$$$$$$$$>>....",
".....###$########$$$$9$$$$>.....",
"......##$#######q$$$#X$>>w......",
".......#########$e>>##.........."
};
