/* XPM */
static char *result[] = {
/* columns rows colors chars-per-pixel */
"32 32 4 1 ",
"  c #002D5B",
". c #183A5F",
"X c #224964",
"o c None",
/* pixels */
"o    ....  .. . ......   ....   ",
"o      ...  .    ......   ....  ",
".      .....        ....  ..    ",
"...      . .....    ....        ",
"o..           .    .....        ",
".....                         ..",
".....XXX...      ...   .......X.",
"..XXXXX.....XX.................X",
"...................XXX....XXXXXX",
"...................X...XXX......",
"................XXX.....XXXXXXX.",
"XX..........XXXXX...........XX..",
"XXXXX..........XXXXX......XXX..X",
"....XXX............XXXX....X....",
".....XXXXX...XX.....XXXX....XXX.",
"....XXX....XXXX....XXXXXXXX.....",
"XXXXX............XXXX...........",
"XXX..............XX............X",
"...XXXXXX......XXX..............",
"........XXX....XXXXXXXX.........",
"...................XXXXXXXXXXXX.",
"XX.......................XXXXXXX",
"X.............XX..............XX",
"............XXXXXXX.........XXX.",
"...........XXXX..........XXX....",
".....................XXXXXXX....",
"..................XXXXXXXX......",
"...............XXXXX............",
".............XXX................",
"................................",
"................................",
"................................"
};
